<?xml version="1.0" encoding="UTF-8"?>
<svg version="1.1" xmlns="http://www.w3.org/2000/svg" width="1729" height="1350">
<path d="M0 0 C570.57 0 1141.14 0 1729 0 C1729 445.5 1729 891 1729 1350 C1158.43 1350 587.86 1350 0 1350 C0 904.5 0 459 0 0 Z " fill="#FEFEFE" transform="translate(0,0)"/>
<path d="M0 0 C1.80476731 -0.01151082 3.60950082 -0.0319485 5.4140625 -0.06152344 C21.30852499 -0.32007567 37.77005754 0.59788409 52.09277344 8.23266602 C52.78234131 8.57749023 53.47190918 8.92231445 54.18237305 9.27758789 C56.12549032 10.25819654 58.04898148 11.26793396 59.96777344 12.29516602 C60.97710938 12.83270508 61.98644531 13.37024414 63.02636719 13.92407227 C65.02358988 15.01771527 66.99960967 16.15005255 68.96777344 17.29516602 C68.96777344 17.95516602 68.96777344 18.61516602 68.96777344 19.29516602 C69.51820312 19.53750977 70.06863281 19.77985352 70.63574219 20.02954102 C75.56210384 22.70314432 79.68842153 26.70583691 83.96777344 30.29516602 C84.68320313 30.88426758 85.39863281 31.47336914 86.13574219 32.08032227 C86.7403125 32.5843457 87.34488281 33.08836914 87.96777344 33.60766602 C88.48339844 34.03692383 88.99902344 34.46618164 89.53027344 34.90844727 C92.37569837 37.65335447 93.85704014 39.37021988 94.34178693 43.41927011 C94.34108502 45.28635819 94.34108502 45.28635819 94.34036893 47.19116521 C94.3442032 47.8892774 94.34803748 48.58738959 94.35198795 49.3066567 C94.36122755 51.66247386 94.34895871 54.01769549 94.33691692 56.37349319 C94.33913449 58.08079863 94.3426688 59.78810279 94.34740551 61.4954031 C94.3566466 66.21577647 94.34706063 70.93595729 94.33457068 75.65631637 C94.3243147 80.7689402 94.33138171 85.8815435 94.33631897 90.99417114 C94.34256812 99.9737117 94.33758404 108.9531927 94.32541883 117.93272638 C94.30715436 131.45855107 94.30630568 144.98433952 94.30881473 158.51017432 C94.31254597 181.17425671 94.30266649 203.83830761 94.28450012 226.50238037 C94.25998882 257.14734492 94.25419346 287.79227391 94.25158691 318.43725586 C94.23581821 392.13989788 94.19393512 465.84253244 94.15527344 539.54516602 C94.09339844 704.13266602 94.03152344 868.72016602 93.96777344 1038.29516602 C-434.36222656 1038.29516602 -962.69222656 1038.29516602 -1507.03222656 1038.29516602 C-1505.1888526 1033.68673112 -1503.0855621 1029.59633549 -1500.65722656 1025.29516602 C-1500.27050781 1024.59649414 -1499.88378906 1023.89782227 -1499.48535156 1023.17797852 C-1497.27261424 1019.24257321 -1494.86718812 1015.81910229 -1492.03222656 1012.29516602 C-1491.07694648 1010.61533027 -1490.12282418 1008.93476591 -1489.18457031 1007.24536133 C-1486.89689136 1003.37375551 -1484.19844846 999.78662295 -1481.53222656 996.17016602 C-1480.92217773 995.3406543 -1480.31212891 994.51114258 -1479.68359375 993.65649414 C-1474.94507236 987.31065452 -1469.86084689 981.45375384 -1464.36035156 975.76391602 C-1461.93365853 973.32855303 -1461.93365853 973.32855303 -1460.03222656 970.29516602 C-1459.37222656 970.29516602 -1458.71222656 970.29516602 -1458.03222656 970.29516602 C-1457.70222656 969.30516602 -1457.37222656 968.31516602 -1457.03222656 967.29516602 C-1456.37222656 967.29516602 -1455.71222656 967.29516602 -1455.03222656 967.29516602 C-1455.03222656 966.63516602 -1455.03222656 965.97516602 -1455.03222656 965.29516602 C-1453.73925781 963.95532227 -1453.73925781 963.95532227 -1451.84472656 962.35766602 C-1451.10480469 961.7324707 -1450.36488281 961.10727539 -1449.60253906 960.46313477 C-1448.33023437 959.38999023 -1448.33023437 959.38999023 -1447.03222656 958.29516602 C-1446.12214844 957.48692383 -1445.21207031 956.67868164 -1444.27441406 955.84594727 C-1432.04165839 945.06164923 -1417.37955616 933.14683415 -1402.03222656 927.29516602 C-1400.65317367 926.41638375 -1399.29882578 925.49781517 -1397.96972656 924.54516602 C-1392.59161733 920.87988695 -1386.87936731 918.12715467 -1381.03222656 915.29516602 C-1379.27319049 914.40974517 -1377.5141801 913.52426647 -1375.75708008 912.63500977 C-1370.83576021 910.15048604 -1365.8939503 907.70826549 -1360.90722656 905.35766602 C-1360.05902344 904.95676758 -1359.21082031 904.55586914 -1358.33691406 904.14282227 C-1356.03222656 903.29516602 -1356.03222656 903.29516602 -1352.03222656 903.29516602 C-1352.03222656 902.63516602 -1352.03222656 901.97516602 -1352.03222656 901.29516602 C-1351.25359253 901.00065552 -1351.25359253 901.00065552 -1350.45922852 900.70019531 C-1348.08582334 899.79928089 -1345.71528439 898.89104477 -1343.34472656 897.98266602 C-1342.52810547 897.67393555 -1341.71148438 897.36520508 -1340.87011719 897.04711914 C-1337.54846027 895.76955879 -1334.49784457 894.59623692 -1331.50097656 892.65844727 C-1327.8958356 890.66763367 -1324.26761609 890.32873648 -1320.21972656 889.79516602 C-1318.67112334 889.57945344 -1317.12295914 889.36057108 -1315.57519531 889.13891602 C-1314.70564209 889.01871094 -1313.83608887 888.89850586 -1312.94018555 888.7746582 C-1310.89494878 888.43741994 -1308.86229991 888.01879269 -1306.8449707 887.54223633 C-1294.27990763 884.69439128 -1281.78899526 884.90876111 -1268.9543457 885.01391602 C-1265.05117391 885.04551865 -1261.14840519 885.05494084 -1257.24511719 885.06079102 C-1254.76920074 885.06994505 -1252.29328842 885.08031565 -1249.81738281 885.09204102 C-1248.64780533 885.09629089 -1247.47822784 885.10054077 -1246.27320862 885.10491943 C-1244.66904335 885.11933075 -1244.66904335 885.11933075 -1243.0324707 885.1340332 C-1242.08811661 885.14086121 -1241.14376251 885.14768921 -1240.17079163 885.15472412 C-1238.03222656 885.29516602 -1238.03222656 885.29516602 -1237.03222656 886.29516602 C-1234.3398688 886.53195318 -1231.667245 886.71714627 -1228.96972656 886.85766602 C-1228.21111328 886.90084961 -1227.4525 886.9440332 -1226.67089844 886.98852539 C-1224.79157218 887.09490235 -1222.91192413 887.19556536 -1221.03222656 887.29516602 C-1221.03222656 887.95516602 -1221.03222656 888.61516602 -1221.03222656 889.29516602 C-1220.32622314 889.28138916 -1219.62021973 889.2676123 -1218.89282227 889.25341797 C-1210.93183011 889.16717443 -1203.13638397 889.6722829 -1195.21972656 890.48266602 C-1193.92945557 890.61358643 -1192.63918457 890.74450684 -1191.30981445 890.87939453 C-1172.73089968 892.83112661 -1154.32725704 896.05734942 -1135.96972656 899.48266602 C-1134.72147095 899.71457642 -1134.72147095 899.71457642 -1133.44799805 899.95117188 C-1130.16503169 900.58557316 -1127.07539374 901.28068725 -1123.89941406 902.34594727 C-1120.66693308 903.41610105 -1117.5960951 903.87075156 -1114.21972656 904.29516602 C-1109.52743783 904.88899239 -1104.98142567 905.71266678 -1100.37768555 906.76879883 C-1097.24476026 907.47188896 -1094.09604051 908.07845604 -1090.9440918 908.68945312 C-1079.57608452 910.8979984 -1068.38881233 913.5885987 -1057.20410156 916.58813477 C-1055.54274334 917.03251961 -1053.88128497 917.47653025 -1052.21972656 917.92016602 C-1051.41164551 918.13648682 -1050.60356445 918.35280762 -1049.77099609 918.57568359 C-1044.64323185 919.92862365 -1039.53630677 920.97777111 -1034.30175781 921.83813477 C-1031.4225667 922.41793745 -1028.83735962 923.40666122 -1026.12207031 924.50610352 C-1020.56805907 926.60313206 -1014.7283362 927.98172605 -1008.90722656 929.10766602 C-1001.40937909 930.70468046 -994.22511643 933.68969198 -987.03222656 936.29516602 C-981.92262186 938.1394612 -976.9076336 939.57258875 -971.59472656 940.73266602 C-966.6668029 941.83030098 -962.19861126 943.28104804 -957.56347656 945.26000977 C-954.73618772 946.41623128 -951.87703597 947.35910049 -948.96972656 948.29516602 C-942.02945183 950.57313614 -935.59750178 953.48815591 -929.09472656 956.79516602 C-925.75176262 958.49515388 -922.41274098 959.9638221 -918.90722656 961.29516602 C-915.67168076 962.53999439 -912.90705335 963.92379659 -910.03222656 965.85766602 C-906.29120836 968.34151924 -902.56217761 969.5112068 -898.23144531 970.61938477 C-896.03222656 971.29516602 -896.03222656 971.29516602 -893.03222656 973.29516602 C-893.03222656 973.95516602 -893.03222656 974.61516602 -893.03222656 975.29516602 C-892.31421875 975.43051758 -891.59621094 975.56586914 -890.85644531 975.70532227 C-888.14049911 976.27255308 -885.50749975 976.95518458 -882.84472656 977.73266602 C-881.98492188 977.97887695 -881.12511719 978.22508789 -880.23925781 978.47875977 C-878.03222656 979.29516602 -878.03222656 979.29516602 -876.03222656 981.29516602 C-874.04866173 982.00924935 -872.04907219 982.68134343 -870.03222656 983.29516602 C-870.03222656 983.95516602 -870.03222656 984.61516602 -870.03222656 985.29516602 C-869.16339844 985.41375977 -868.29457031 985.53235352 -867.39941406 985.65454102 C-864.0655185 986.28883205 -861.29105753 987.25907435 -858.15722656 988.54516602 C-851.19415161 991.29708744 -844.13769199 993.53559972 -836.97802734 995.7043457 C-833.97120746 996.61733242 -830.97119001 997.55224681 -827.96972656 998.48266602 C-823.67012021 999.80356498 -819.36456959 1001.08614006 -815.03222656 1002.29516602 C-815.03222656 1002.95516602 -815.03222656 1003.61516602 -815.03222656 1004.29516602 C-813.95972656 1004.39829102 -812.88722656 1004.50141602 -811.78222656 1004.60766602 C-807.23116008 1005.17257112 -802.90427655 1006.31094475 -798.47363281 1007.47094727 C-793.81001558 1008.58788624 -789.10602695 1009.42053692 -784.37597656 1010.20483398 C-780.9783924 1010.79772924 -778.95108728 1011.34925887 -776.03222656 1013.29516602 C-773.55598302 1013.71443051 -773.55598302 1013.71443051 -770.90722656 1013.85766602 C-766.13051049 1014.19688208 -766.13051049 1014.19688208 -765.03222656 1015.29516602 C-763.09602314 1015.58262412 -761.15097238 1015.81091387 -759.20410156 1016.01391602 C-758.01171875 1016.1415332 -756.81933594 1016.26915039 -755.59082031 1016.40063477 C-754.33398438 1016.53083008 -753.07714844 1016.66102539 -751.78222656 1016.79516602 C-749.31847255 1017.05356597 -746.85492141 1017.31390938 -744.39160156 1017.57641602 C-743.29299805 1017.69049805 -742.19439453 1017.80458008 -741.0625 1017.92211914 C-738.03222656 1018.29516602 -738.03222656 1018.29516602 -735.5012207 1018.8203125 C-705.71235328 1024.54950731 -668.51928873 1022.06432917 -638.72509766 1017.6550293 C-634.90792535 1017.14491942 -631.08010483 1016.84398307 -627.24047852 1016.55664062 C-624.99362037 1016.41708731 -624.99362037 1016.41708731 -623.03222656 1015.29516602 C-620.70248081 1014.99503295 -618.36810187 1014.73062103 -616.03222656 1014.48266602 C-603.81478097 1013.06913516 -591.57027094 1010.61697645 -580.03222656 1006.29516602 C-577.65818854 1005.4383293 -575.28310189 1004.58439491 -572.90722656 1003.73266602 C-571.20179688 1003.11198242 -571.20179688 1003.11198242 -569.46191406 1002.47875977 C-560.23684702 999.29516602 -560.23684702 999.29516602 -556.03222656 999.29516602 C-556.03222656 998.63516602 -556.03222656 997.97516602 -556.03222656 997.29516602 C-555.04222656 997.02704102 -554.05222656 996.75891602 -553.03222656 996.48266602 C-547.73809258 994.96394475 -542.6746943 993.1479858 -537.78222656 990.60766602 C-535.03222656 989.29516602 -535.03222656 989.29516602 -531.03222656 989.29516602 C-531.03222656 988.63516602 -531.03222656 987.97516602 -531.03222656 987.29516602 C-529.87722656 986.80016602 -528.72222656 986.30516602 -527.53222656 985.79516602 C-506.76676197 976.50535291 -486.63566926 965.39603367 -468.03222656 952.29516602 C-467.42556152 951.87106445 -466.81889648 951.44696289 -466.19384766 951.01000977 C-458.98743954 945.96345274 -451.92585928 940.76291705 -445.03222656 935.29516602 C-443.94163856 934.44158823 -442.85044381 933.58878534 -441.75878906 932.73657227 C-427.88706148 922.0967494 -427.88706148 922.0967494 -415.03222656 910.29516602 C-412.14175102 907.35234641 -409.24422429 904.41659374 -406.34472656 901.48266602 C-405.57322266 900.6944043 -404.80171875 899.90614258 -404.00683594 899.09399414 C-403.26884766 898.34956055 -402.53085938 897.60512695 -401.77050781 896.83813477 C-400.76564331 895.81755981 -400.76564331 895.81755981 -399.74047852 894.77636719 C-398.03222656 893.29516602 -398.03222656 893.29516602 -396.03222656 893.29516602 C-395.67837891 892.44631836 -395.67837891 892.44631836 -395.31738281 891.58032227 C-393.7380834 888.77214549 -391.8053665 886.9513412 -389.46972656 884.73266602 C-385.08340171 880.43444525 -381.15958037 875.95724365 -377.32910156 871.16235352 C-374.86090859 868.0813099 -372.32640161 865.06330235 -369.78222656 862.04516602 C-367.07029166 858.80684624 -364.44363111 855.57583315 -362.03222656 852.10766602 C-360.03222656 849.29516602 -360.03222656 849.29516602 -358.03222656 848.29516602 C-357.31674709 847.09375673 -356.66034326 845.85697165 -356.03222656 844.60766602 C-353.77410099 840.40927419 -351.15598562 836.57288264 -348.34472656 832.73266602 C-344.07906231 826.8953565 -340.18157962 820.89364885 -336.43188477 814.71289062 C-334.17561945 811.01693551 -331.74525009 807.67915236 -329.03222656 804.29516602 C-328.00993812 802.41120887 -328.00993812 802.41120887 -327.34472656 800.60766602 C-326.03222656 797.29516602 -326.03222656 797.29516602 -325.03222656 795.29516602 C-324.37222656 795.29516602 -323.71222656 795.29516602 -323.03222656 795.29516602 C-322.84660156 794.18141602 -322.84660156 794.18141602 -322.65722656 793.04516602 C-322.07735955 790.49375117 -321.29513917 788.56840871 -320.03222656 786.29516602 C-319.37222656 786.29516602 -318.71222656 786.29516602 -318.03222656 786.29516602 C-317.93296875 785.60680664 -317.83371094 784.91844727 -317.73144531 784.20922852 C-316.89179053 780.7098851 -315.48295222 777.87428949 -313.84472656 774.67016602 C-313.53301514 774.0569751 -313.22130371 773.44378418 -312.90014648 772.81201172 C-310.9490581 768.99750762 -308.91792231 765.23240017 -306.84472656 761.48266602 C-304.29102984 756.85748657 -302.08588772 752.16006112 -300.03222656 747.29516602 C-299.44899068 745.94095737 -298.86566554 744.58678717 -298.28222656 743.23266602 C-297.86972656 742.26329102 -297.45722656 741.29391602 -297.03222656 740.29516602 C-296.37222656 740.29516602 -295.71222656 740.29516602 -295.03222656 740.29516602 C-294.94972656 739.51141602 -294.86722656 738.72766602 -294.78222656 737.92016602 C-293.38152589 731.15011275 -290.36605415 724.98033337 -287.46972656 718.73266602 C-285.29282367 714.01046128 -283.56287054 709.25941674 -282.03222656 704.29516602 C-281.70222656 703.30516602 -281.37222656 702.31516602 -281.03222656 701.29516602 C-280.37222656 701.29516602 -279.71222656 701.29516602 -279.03222656 701.29516602 C-279.03222656 700.30516602 -279.03222656 699.31516602 -279.03222656 698.29516602 C-278.37222656 698.29516602 -277.71222656 698.29516602 -277.03222656 698.29516602 C-276.87173828 696.36157227 -276.87173828 696.36157227 -276.70800781 694.38891602 C-276.1391097 689.29573361 -274.81585938 684.65089514 -273.21972656 679.79516602 C-272.97158203 679.0049707 -272.7234375 678.21477539 -272.46777344 677.40063477 C-270.9042075 672.53885977 -269.05704556 667.90311592 -266.9050293 663.27172852 C-264.98855951 658.93166156 -264.03379309 654.34757638 -263.03222656 649.73266602 C-262.25315832 646.1513678 -261.25737223 642.75440084 -260.03222656 639.29516602 C-259.50998711 637.71229591 -258.98924222 636.12893219 -258.46972656 634.54516602 C-257.75301739 632.36161683 -257.06027059 630.35125407 -256.03222656 628.29516602 C-255.37222656 628.29516602 -254.71222656 628.29516602 -254.03222656 628.29516602 C-253.98324219 627.63129883 -253.93425781 626.96743164 -253.88378906 626.28344727 C-253.48154056 621.53275373 -252.90357963 617.69834971 -251.03222656 613.29516602 C-250.71494296 611.86310219 -250.42739496 610.4243611 -250.15722656 608.98266602 C-249.30332389 604.45765421 -248.23498504 600.0050093 -247.09472656 595.54516602 C-245.49506176 589.28689311 -244.09303107 583.01290313 -242.84082031 576.67407227 C-242.22196349 574.08802806 -241.5134428 571.73907931 -240.63378906 569.24438477 C-238.54632853 563.13510505 -237.29341052 556.85551615 -235.96972656 550.54516602 C-235.5859082 548.76625977 -235.5859082 548.76625977 -235.19433594 546.95141602 C-233.72542566 540.03356605 -232.49599993 533.13711675 -231.56176758 526.1262207 C-231.03234084 523.29577695 -230.15227911 520.93861184 -229.03222656 518.29516602 C-226.38710367 506.86989698 -225.27917704 495.19140003 -224.21020508 483.53320312 C-223.54229097 476.65646871 -222.36614447 470.15806601 -220.72314453 463.45092773 C-219.63843335 458.49651901 -219.22200689 453.53268435 -218.84472656 448.48266602 C-218.76287109 447.49202148 -218.68101563 446.50137695 -218.59667969 445.48071289 C-218.40001875 443.08607674 -218.2119154 440.6911247 -218.03222656 438.29516602 C-217.37222656 438.29516602 -216.71222656 438.29516602 -216.03222656 438.29516602 C-216.05542969 437.74731445 -216.07863281 437.19946289 -216.10253906 436.63500977 C-216.28295001 428.70981467 -215.200289 421.1170127 -214.03222656 413.29516602 C-213.37222656 413.29516602 -212.71222656 413.29516602 -212.03222656 413.29516602 C-212.05542969 412.07442383 -212.07863281 410.85368164 -212.10253906 409.59594727 C-212.12132725 407.93319307 -212.13952411 406.27043212 -212.15722656 404.60766602 C-212.17398437 403.81038086 -212.19074219 403.0130957 -212.20800781 402.19165039 C-212.24475276 397.54341424 -211.90328821 393.19778694 -211.09082031 388.61938477 C-209.40079725 378.43354983 -209.33727202 368.09604778 -208.96972656 357.79516602 C-208.85381062 354.652663 -208.73569846 351.51028501 -208.6129303 348.36804199 C-208.53740564 346.42606454 -208.46594846 344.48392333 -208.39915466 342.54162598 C-208.36564407 341.66300903 -208.33213348 340.78439209 -208.29760742 339.87915039 C-208.27033066 339.11227905 -208.24305389 338.34540771 -208.21495056 337.55529785 C-208.03222656 335.29516602 -208.03222656 335.29516602 -207.55082703 333.07046509 C-204.13695758 314.80108552 -205.93544091 294.87343754 -206.01819229 276.3305397 C-206.04168975 271.00421549 -206.05468491 265.67789445 -206.06588745 260.35153198 C-206.09896865 245.22282981 -206.14074779 230.09418586 -206.20361328 214.96557617 C-206.23841076 206.57037417 -206.26203663 198.17521377 -206.27382171 189.77994716 C-206.28050806 185.36400979 -206.29261906 180.94825099 -206.31885147 176.53238297 C-206.42889731 157.54566419 -206.12532361 139.09484275 -203.03222656 120.29516602 C-202.37222656 120.29516602 -201.71222656 120.29516602 -201.03222656 120.29516602 C-201.06832031 119.4534082 -201.10441406 118.61165039 -201.14160156 117.74438477 C-200.82585164 107.78698545 -196.64578178 97.49085505 -193.03222656 88.29516602 C-192.51402344 86.88364258 -192.51402344 86.88364258 -191.98535156 85.44360352 C-188.71915673 76.96491966 -184.11027023 69.76781008 -179.03222656 62.29516602 C-178.566875 61.57071289 -178.10152344 60.84625977 -177.62207031 60.09985352 C-174.96235939 56.07873124 -171.7783844 53.11356262 -168.09472656 50.06860352 C-165.91576969 48.23995881 -165.91576969 48.23995881 -163.58691406 45.84985352 C-157.15647211 39.41941156 -150.05719383 34.07129718 -142.34472656 29.29516602 C-141.437146 28.71653809 -141.437146 28.71653809 -140.51123047 28.1262207 C-136.0033786 25.42370675 -132.27228303 24.66491642 -127.03222656 24.29516602 C-127.03222656 23.63516602 -127.03222656 22.97516602 -127.03222656 22.29516602 C-123.56722656 21.80016602 -123.56722656 21.80016602 -120.03222656 21.29516602 C-120.03222656 20.63516602 -120.03222656 19.97516602 -120.03222656 19.29516602 C-118.19261808 18.60097413 -116.35222594 17.9088142 -114.50878906 17.22485352 C-112.78918358 16.57932338 -111.07597637 15.91659189 -109.36816406 15.24047852 C-103.49520657 12.97401323 -98.31845591 11.70737778 -92.03222656 11.29516602 C-92.03222656 10.63516602 -92.03222656 9.97516602 -92.03222656 9.29516602 C-77.80300435 6.10613669 -63.65160798 4.43207532 -49.14379883 3.24707031 C-48.09730919 3.16101028 -48.09730919 3.16101028 -47.02967834 3.07321167 C-45.11876505 2.91801365 -43.20734412 2.76910273 -41.29589844 2.62060547 C-38.46972581 2.33879158 -35.81139605 1.85242738 -33.03222656 1.29516602 C-22.05713606 0.19254489 -11.02164702 0.04861908 0 0 Z " fill="#C4D741" transform="translate(1635.0322265625,311.704833984375)"/>
<path d="M0 0 C169.29 0 338.58 0 513 0 C517 12 517 12 518 15.6875 C518.81606397 18.39071192 519.7386234 20.65402492 520.9375 23.1875 C522.89031105 27.47223926 524.01462333 31.70495971 525.08203125 36.28125 C526.50523746 42.04674922 528.18726411 47.73621089 529.84326172 53.43847656 C534.31808455 68.91064716 534.31808455 68.91064716 534 74 C534.66 74 535.32 74 536 74 C536.45572917 76.01822917 536.91145833 78.03645833 537.3671875 80.0546875 C537.90474428 82.20719964 537.90474428 82.20719964 540 84 C540.640625 86.08203125 540.640625 86.08203125 541.25 88.8125 C542.89080218 95.75435538 544.85364041 102.58745313 546.84277344 109.43676758 C551.31807931 124.91073106 551.31807931 124.91073106 551 130 C551.66 130 552.32 130 553 130 C553.18103271 130.54382324 553.36206543 131.08764648 553.54858398 131.64794922 C554.87282012 135.62363534 556.19995859 139.59829314 557.53515625 143.5703125 C558.04427083 145.08854167 558.55338542 146.60677083 559.0625 148.125 C559.44631836 149.26388672 559.44631836 149.26388672 559.83789062 150.42578125 C560.99037482 153.86842041 562.08276898 157.29547309 563.0625 160.79296875 C563.8404839 163.45432202 564.71052971 165.71877666 565.9375 168.1875 C567.89031105 172.47223926 569.01462333 176.70495971 570.08203125 181.28125 C571.50523746 187.04674922 573.18726411 192.73621089 574.84326172 198.43847656 C577.54646715 207.78509365 579.66709367 217.09356319 581.41210938 226.66601562 C582.14198824 230.47243567 582.90119669 233.77532758 584.46875 237.33984375 C586.66111286 242.58026212 587.55902512 247.92513954 588.5625 253.5 C588.77865967 254.69544434 588.99481934 255.89088867 589.2175293 257.12255859 C592.76401078 277.46794987 596.36527073 301.57053297 592 322 C591.34 322 590.68 322 590 322 C589.938125 323.7325 589.938125 323.7325 589.875 325.5 C589.1450869 331.62255467 585.22814832 335.77185168 581 340 C580.01 340 579.02 340 578 340 C578 340.66 578 341.32 578 342 C573.71 342 569.42 342 565 342 C565 341.34 565 340.68 565 340 C564.443125 339.97421875 563.88625 339.9484375 563.3125 339.921875 C547.62371467 338.75581663 533.55317644 325.70958445 522 316 C521.67 315.34 521.34 314.68 521 314 C519.31822558 313.05820633 517.63524799 312.11847612 515.9453125 311.19140625 C514.00386495 310.00236709 512.4348905 308.71366893 510.75 307.1875 C507.08460902 303.92301116 503.07073675 301.44320368 498.90625 298.86328125 C495.92839515 296.95409205 493.09252887 294.91706464 490.25 292.8125 C481.80714479 286.60837085 472.63319654 282.2694875 463.25 277.64453125 C459.61692242 275.84460715 456.08790622 274.05372047 452.625 271.9375 C449.56865041 270.13114682 446.44646158 269.12131151 443.0625 268.0625 C439.33435944 266.89487028 436.38500213 265.7592089 433.25 263.4375 C427.44319404 259.41740357 419.83050816 259.01960255 413 258 C413 257.34 413 256.68 413 256 C411.081875 255.814375 411.081875 255.814375 409.125 255.625 C404.01355779 255.06428535 399.02393526 254.08030341 394 253 C394 252.34 394 251.68 394 251 C366.92875499 247.72707777 339.9841082 245.80189384 313 251 C311.72382813 251.23976562 310.44765625 251.47953125 309.1328125 251.7265625 C300.66013304 253.44374252 292.3315918 255.70790269 284 258 C281.85419097 258.58342273 279.70836038 259.16676615 277.5625 259.75 C276.04154307 260.16621529 274.52065661 260.58268883 273 261 C273 261.66 273 262.32 273 263 C270.03 263.33 267.06 263.66 264 264 C264 264.66 264 265.32 264 266 C262.23141309 266.67260351 260.46003984 267.33788395 258.6875 268 C257.70136719 268.37125 256.71523438 268.7425 255.69921875 269.125 C253 270 253 270 250 270 C250 270.66 250 271.32 250 272 C248.205625 272.8353125 248.205625 272.8353125 246.375 273.6875 C243.47196844 275.12626081 241.4672972 276.44573092 238.9375 278.5625 C236 281 236 281 232.8359375 282.265625 C228.23298855 284.15747148 224.57408583 287.12938011 220.6875 290.1875 C219.27804206 291.28939363 217.86543389 292.38727347 216.44921875 293.48046875 C215.83393311 293.96410889 215.21864746 294.44774902 214.5847168 294.94604492 C213 296 213 296 211 296 C211 296.66 211 297.32 211 298 C209.53125 299.24853516 209.53125 299.24853516 207.5 300.6640625 C203.00721019 303.92489454 199.01305146 307.54783258 195 311.375 C194.30011963 312.03765869 193.60023926 312.70031738 192.87915039 313.38305664 C179.68115252 325.6347005 179.68115252 325.6347005 169 340 C167.33890742 341.67222218 165.67155422 343.33823526 164 345 C158.41912541 351.29856863 153.44001606 358.02694101 148.5625 364.875 C147.78217407 365.96312988 147.78217407 365.96312988 146.98608398 367.07324219 C144.47433159 370.64290116 142.54575652 373.89751824 141 378 C139.703125 379.6328125 139.703125 379.6328125 138.25 381.125 C134.92420197 384.8392124 132.7434854 388.89304631 130.4453125 393.296875 C129.16809898 395.68560947 127.79925778 397.92620374 126.3125 400.1875 C124.58713281 402.86403116 123.37692469 405.43582237 122.3125 408.4375 C121 412 121 412 119 413 C117.91501629 414.90231892 116.90451382 416.84758494 115.9375 418.8125 C115.41027344 419.87082031 114.88304688 420.92914063 114.33984375 422.01953125 C113.27263854 424.39351834 112.49768915 426.46239975 112 429 C111.34 429 110.68 429 110 429 C109.814375 430.6396875 109.814375 430.6396875 109.625 432.3125 C109 436 109 436 107 439 C106.34 439 105.68 439 105 439 C104.87625 439.886875 104.7525 440.77375 104.625 441.6875 C104.05587264 444.70387502 103.23385564 447.20326054 102 450 C101.34 450 100.68 450 100 450 C99.82984375 450.60585938 99.6596875 451.21171875 99.484375 451.8359375 C97.68433058 458.05949532 95.50381567 464.02642961 93 470 C92.34 470 91.68 470 91 470 C90.855625 470.61875 90.71125 471.2375 90.5625 471.875 C90 474 90 474 89 476 C88.34 476 87.68 476 87 476 C86.72800781 476.70511719 86.45601563 477.41023438 86.17578125 478.13671875 C82.87850817 486.16629074 78.74636106 493.74484809 74 501 C72.37543791 503.58726555 71.03865582 505.89994964 69.9375 508.75 C69 511 69 511 67 512 C65.34550941 514.48173589 64.06268165 516.83546068 63 519.625 C61.94582898 522.12865617 60.91359423 523.1291513 59 525 C58.1342123 526.09490794 57.29118792 527.20810436 56.46875 528.3359375 C55.75634155 529.30406372 55.75634155 529.30406372 55.02954102 530.29174805 C54.52479248 530.97922119 54.02004395 531.66669434 53.5 532.375 C41.55200333 548.43312202 28.78190504 563.80289287 12 575 C11.35804687 575.45246094 10.71609375 575.90492188 10.0546875 576.37109375 C6.28871107 579 6.28871107 579 4 579 C4 579.66 4 580.32 4 581 C2.68 581 1.36 581 0 581 C0 389.27 0 197.54 0 0 Z " fill="#61B5D5" transform="translate(0,0)"/>
<path d="M0 0 C2.26953025 0.00503186 4.53906159 0.00959174 6.80859375 0.01367188 C12.28908704 0.02452823 17.76953813 0.04112905 23.25 0.0625 C23.25 0.3925 23.25 0.7225 23.25 1.0625 C22.05624756 1.08755615 20.86249512 1.1126123 19.63256836 1.13842773 C15.13151378 1.23381027 10.63056762 1.3336911 6.12963867 1.43481445 C4.19509446 1.4776759 2.26052412 1.51937626 0.32592773 1.55981445 C-16.55236921 1.9139046 -33.13929961 2.84994632 -49.89257812 5.04492188 C-55.56782701 5.76272594 -61.02931981 6.22083411 -66.75 6.0625 C-66.75 5.7325 -66.75 5.4025 -66.75 5.0625 C-66.14937744 4.97685791 -65.54875488 4.89121582 -64.92993164 4.80297852 C-62.22348342 4.41461985 -59.51800164 4.01989671 -56.8125 3.625 C-55.86697266 3.49029297 -54.92144531 3.35558594 -53.94726562 3.21679688 C-53.04814453 3.08466797 -52.14902344 2.95253906 -51.22265625 2.81640625 C-50.39000244 2.69595947 -49.55734863 2.5755127 -48.69946289 2.45141602 C-46.75312641 2.25066006 -46.75312641 2.25066006 -45.75 1.0625 C-42.92590393 0.81375844 -40.12739228 0.6343224 -37.296875 0.50390625 C-36.41151062 0.46165421 -35.52614624 0.41940216 -34.61395264 0.37586975 C-23.07948878 -0.11978968 -11.54240924 -0.0451741 0 0 Z " fill="#E2EBA5" transform="translate(1635.75,310.9375)"/>
<path d="M0 0 C0.33 0 0.66 0 1 0 C3.80994622 15.42819529 5.06754543 30.37965662 5.125 46.0625 C5.12975342 47.1460376 5.13450684 48.2295752 5.1394043 49.34594727 C5.12888244 54.33681679 5.07040556 59.09822214 4 64 C3.67 64 3.34 64 3 64 C2.98018066 62.87207031 2.96036133 61.74414062 2.93994141 60.58203125 C2.86272474 56.3175158 2.77420802 52.05329139 2.68261719 47.7890625 C2.64479873 45.95839262 2.60987272 44.12766023 2.578125 42.296875 C2.39632832 31.93446443 1.95058611 21.80051455 0.41552734 11.54296875 C-0.04235845 7.63883323 -0.06642744 3.92731992 0 0 Z " fill="#8CC9DF" transform="translate(588,258)"/>
<path d="M0 0 C0.66 0 1.32 0 2 0 C2 6.27 2 12.54 2 19 C1.34 19 0.68 19 0 19 C0.020625 20.134375 0.04125 21.26875 0.0625 22.4375 C0.0625 27.01373431 -0.41851692 31.46600358 -1 36 C-1.09539062 36.77472656 -1.19078125 37.54945313 -1.2890625 38.34765625 C-1.52173549 40.23230746 -1.76024825 42.11623622 -2 44 C-2.33 44 -2.66 44 -3 44 C-3.02690844 41.37493198 -3.04679404 38.75013827 -3.0625 36.125 C-3.07087891 35.37863281 -3.07925781 34.63226562 -3.08789062 33.86328125 C-3.11328125 28.2265625 -3.11328125 28.2265625 -2 26 C-1.77760311 24.04356527 -1.60784146 22.08102275 -1.46484375 20.1171875 C-1.37783203 18.95058594 -1.29082031 17.78398438 -1.20117188 16.58203125 C-1.11416016 15.35871094 -1.02714844 14.13539063 -0.9375 12.875 C-0.84662109 11.64394531 -0.75574219 10.41289063 -0.66210938 9.14453125 C-0.43764997 6.09660885 -0.21711458 3.04845297 0 0 Z " fill="#E6EAC8" transform="translate(1421,706)"/>
<path d="M0 0 C0.66 0.33 1.32 0.66 2 1 C-0.7504753 5.69872864 -3.89194426 8.78971951 -8.05859375 12.2734375 C-9.78356001 13.80751212 -11.11384383 15.29245455 -12.5 17.125 C-15.57131506 20.65701232 -18.95040645 22.72901205 -23 25 C-21.56438314 21.81293058 -19.79733671 19.37830895 -17.5 16.75 C-16.8915625 16.04359375 -16.283125 15.3371875 -15.65625 14.609375 C-14 13 -14 13 -12 13 C-11.67 12.01 -11.34 11.02 -11 10 C-10.34 10 -9.68 10 -9 10 C-9 9.34 -9 8.68 -9 8 C-7.28515625 6.30859375 -7.28515625 6.30859375 -5.0625 4.4375 C-4.33160156 3.81746094 -3.60070312 3.19742187 -2.84765625 2.55859375 C-2.23792969 2.04425781 -1.62820312 1.52992187 -1 1 C-0.67 0.67 -0.34 0.34 0 0 Z " fill="#CEDD64" transform="translate(189,1269)"/>
<path d="M0 0 C0.66 0 1.32 0 2 0 C1.90501319 4.31958306 1.79864162 8.63870652 1.68261719 12.95776367 C1.64480907 14.42090591 1.60988163 15.88412602 1.578125 17.34741211 C1.37236727 26.71903353 0.70562646 35.75334 -1 45 C-1.33 45 -1.66 45 -2 45 C-2.02700675 42.08327116 -2.04684237 39.16679323 -2.0625 36.25 C-2.07087891 35.425 -2.07925781 34.6 -2.08789062 33.75 C-2.09111328 32.95078125 -2.09433594 32.1515625 -2.09765625 31.328125 C-2.10289307 30.5949707 -2.10812988 29.86181641 -2.11352539 29.10644531 C-2 27 -2 27 -1.51367188 25.06835938 C-0.88752525 22.54710737 -0.78453071 20.17364679 -0.68359375 17.578125 C-0.64169922 16.55332031 -0.59980469 15.52851562 -0.55664062 14.47265625 C-0.49766602 12.87744141 -0.49766602 12.87744141 -0.4375 11.25 C-0.39431641 10.17105469 -0.35113281 9.09210937 -0.30664062 7.98046875 C-0.20071011 5.32043572 -0.09863579 2.66031188 0 0 Z " fill="#E1E7BC" transform="translate(1425,661)"/>
<path d="M0 0 C7.8187104 0.46569122 15.36399015 1.22458462 23 3 C23 3.66 23 4.32 23 5 C23.88300781 5.03738281 24.76601563 5.07476563 25.67578125 5.11328125 C33.48878863 5.54127628 40.55401004 6.58385224 48 9 C44.00812686 10.52902082 40.35011716 9.52314381 36.3125 8.6875 C35.23947632 8.47492554 35.23947632 8.47492554 34.14477539 8.25805664 C32.0943559 7.84853087 30.04687881 7.42682732 28 7 C27.07445312 6.80921875 26.14890625 6.6184375 25.1953125 6.421875 C21.97280766 5.73054178 18.84508779 4.95323405 15.6875 4 C10.52254901 2.59933532 5.28457704 1.81568184 0 1 C0 0.67 0 0.34 0 0 Z " fill="#E9EFBA" transform="translate(493,1210)"/>
<path d="M0 0 C0 3 0 3 -1.71240234 5.0847168 C-2.49566895 5.86500244 -3.27893555 6.64528809 -4.0859375 7.44921875 C-4.93414062 8.29677734 -5.78234375 9.14433594 -6.65625 10.01757812 C-7.5534375 10.89865234 -8.450625 11.77972656 -9.375 12.6875 C-10.26445312 13.58017578 -11.15390625 14.47285156 -12.0703125 15.39257812 C-18.73325893 22 -18.73325893 22 -21 22 C-19.58683112 18.79112361 -17.89115422 16.64477563 -15.41015625 14.1796875 C-14.70826172 13.47972656 -14.00636719 12.77976562 -13.28320312 12.05859375 C-12.55037109 11.33800781 -11.81753906 10.61742187 -11.0625 9.875 C-10.33353516 9.14667969 -9.60457031 8.41835938 -8.85351562 7.66796875 C-5.98624216 4.82434832 -3.36994192 2.24662795 0 0 Z " fill="#D9EDF4" transform="translate(199,307)"/>
<path d="M0 0 C-0.9590625 0.4640625 -0.9590625 0.4640625 -1.9375 0.9375 C-3.93610821 1.8345163 -3.93610821 1.8345163 -5 3 C-6.51293062 3.22767857 -8.03507705 3.39482287 -9.55859375 3.53515625 C-10.50283203 3.62216797 -11.44707031 3.70917969 -12.41992188 3.79882812 C-13.91362305 3.9293457 -13.91362305 3.9293457 -15.4375 4.0625 C-16.39849609 4.15337891 -17.35949219 4.24425781 -18.34960938 4.33789062 C-24.58415015 4.89702341 -30.74170655 5.11581489 -37 5 C-37 4.67 -37 4.34 -37 4 C-28.68885206 2.92591187 -20.39951549 1.86491882 -12.0390625 1.24609375 C-1.51219512 -0.02439024 -1.51219512 -0.02439024 0 0 Z " fill="#E1EAA1" transform="translate(1020,1327)"/>
<path d="M0 0 C1.33885369 4.52085415 0.76137736 8.49797527 0.25 13.125 C0.15928223 13.97360596 0.06856445 14.82221191 -0.02490234 15.6965332 C-0.71954918 21.69173724 -1.8201445 27.34690807 -4 33 C-5.37529327 29.13935532 -4.78780396 25.52586092 -4.25 21.5625 C-4.15928223 20.86253906 -4.06856445 20.16257812 -3.97509766 19.44140625 C-3.07256474 12.85366184 -1.65437743 6.44104279 0 0 Z " fill="#D6E08E" transform="translate(1415,772)"/>
<path d="M0 0 C-4.44780227 3.36297245 -7.35464927 4.37273881 -13 5 C-14.34977849 5.63270867 -15.68352881 6.30062468 -17 7 C-24.30434783 9.47826087 -24.30434783 9.47826087 -28 8 C-25.03821227 6.32889958 -22.62928808 5.67317248 -19.25 5.375 C-18.45078125 5.30023437 -17.6515625 5.22546875 -16.828125 5.1484375 C-16.22484375 5.09945313 -15.6215625 5.05046875 -15 5 C-15 4.34 -15 3.68 -15 3 C-13.39125 2.566875 -13.39125 2.566875 -11.75 2.125 C-8.17612429 1.19210826 -8.17612429 1.19210826 -5.8125 -0.1875 C-3.50176494 -1.22334675 -2.33629107 -0.83438967 0 0 Z " fill="#D6E37E" transform="translate(1094,1306)"/>
<path d="M0 0 C0.33 0 0.66 0 1 0 C1.50612064 2.8740422 2.00506541 5.74902873 2.5 8.625 C2.64308594 9.43324219 2.78617188 10.24148438 2.93359375 11.07421875 C3.67876251 15.43877864 4.17272306 19.55238129 4 24 C3.34 24 2.68 24 2 24 C1.66029235 21.50072231 1.32811968 19.00080405 1 16.5 C0.90460937 15.80390625 0.80921875 15.1078125 0.7109375 14.390625 C0.0838378 9.55299871 -0.08789528 4.87818804 0 0 Z " fill="#9BD0E4" transform="translate(588,258)"/>
<path d="M0 0 C1 2 1 2 0.25 4.5 C-1 7 -1 7 -4 9 C-4.495 10.175625 -4.99 11.35125 -5.5 12.5625 C-5.995 13.696875 -6.49 14.83125 -7 16 C-7.99 16.33 -8.98 16.66 -10 17 C-10 17.99 -10 18.98 -10 20 C-10.66 20 -11.32 20 -12 20 C-10.59434539 16.14668811 -8.78799023 12.87863435 -6.5625 9.4375 C-5.96566406 8.50808594 -5.36882812 7.57867188 -4.75390625 6.62109375 C-3.23590351 4.35254177 -1.66399188 2.16268058 0 0 Z " fill="#D6E27F" transform="translate(150,1313)"/>
<path d="M0 0 C0.66 0 1.32 0 2 0 C2.19355213 7.65606218 2.3479743 14.66258031 0 22 C-0.33 22 -0.66 22 -1 22 C-0.67 14.74 -0.34 7.48 0 0 Z " fill="#D1DD7A" transform="translate(1417,750)"/>
<path d="M0 0 C6.8113711 0.40004962 13.41998003 0.88312237 20.0546875 2.5234375 C22.67974458 3.16652377 25.33011017 3.58924772 28 4 C28 4.33 28 4.66 28 5 C25.35375716 4.85978195 22.70815422 4.71310224 20.0625 4.5625 C19.30775391 4.52318359 18.55300781 4.48386719 17.77539062 4.44335938 C12.11328125 4.11328125 12.11328125 4.11328125 11 3 C8.41977858 2.71778828 5.83969815 2.55179803 3.25 2.37890625 C2.5075 2.25386719 1.765 2.12882812 1 2 C0.67 1.34 0.34 0.68 0 0 Z " fill="#E2EBA5" transform="translate(858,1324)"/>
<path d="M0 0 C1.125 1.75 1.125 1.75 2 4 C1.21875 5.78125 1.21875 5.78125 0 8 C-0.88191744 9.9134936 -1.75658312 11.83034164 -2.625 13.75 C-3.07101562 14.73484375 -3.51703125 15.7196875 -3.9765625 16.734375 C-4.31429688 17.48203125 -4.65203125 18.2296875 -5 19 C-6.69904029 14.93663256 -5.11367988 11.68069214 -3.625 7.8125 C-3.39039063 7.17119141 -3.15578125 6.52988281 -2.9140625 5.86914062 C-1.16584821 1.16584821 -1.16584821 1.16584821 0 0 Z " fill="#D6E287" transform="translate(1368,976)"/>
<path d="M0 0 C0.625 1.8125 0.625 1.8125 1 4 C0.01 5.485 0.01 5.485 -1 7 C-1.66 7 -2.32 7 -3 7 C-3 9.64 -3 12.28 -3 15 C-3.99 15.33 -4.98 15.66 -6 16 C-6.33 16.99 -6.66 17.98 -7 19 C-7.33 18.34 -7.66 17.68 -8 17 C-7.0390625 14.25 -7.0390625 14.25 -5.625 11 C-5.16351562 9.9275 -4.70203125 8.855 -4.2265625 7.75 C-3.51426317 6.15299768 -2.78202132 4.56404264 -2 3 C-1.34 3 -0.68 3 0 3 C0 2.01 0 1.02 0 0 Z " fill="#D3E078" transform="translate(1340,1049)"/>
<path d="M0 0 C-1.07429598 0.84495189 -2.15989202 1.67554858 -3.25 2.5 C-4.15492187 3.19609375 -4.15492187 3.19609375 -5.078125 3.90625 C-7 5 -7 5 -11 5 C-11 5.66 -11 6.32 -11 7 C-12.32 6.67 -13.64 6.34 -15 6 C-13.54261898 5.01941648 -12.08406325 4.04057868 -10.625 3.0625 C-9.81289062 2.51722656 -9.00078125 1.97195313 -8.1640625 1.41015625 C-4.84667358 -0.75153581 -3.77914718 -1.13374415 0 0 Z " fill="#D4E176" transform="translate(1504,338)"/>
<path d="M0 0 C1.14266516 3.35897545 0.85911331 5.30450352 -0.3125 8.625 C-0.70888672 9.78902344 -0.70888672 9.78902344 -1.11328125 10.9765625 C-2 13 -2 13 -4 15 C-3.63495936 9.33557626 -2.9445679 4.99296295 0 0 Z " fill="#DEE7A3" transform="translate(1379,940)"/>
<path d="M0 0 C0.33 0.66 0.66 1.32 1 2 C-2.80411834 5.91939465 -6.81576108 9.49102731 -11 13 C-9.46356148 9.31930113 -7.21849055 7.01224796 -4.375 4.25 C-3.55773438 3.45078125 -2.74046875 2.6515625 -1.8984375 1.828125 C-0.95871094 0.92320313 -0.95871094 0.92320313 0 0 Z " fill="#D7E382" transform="translate(1250,1192)"/>
<path d="M0 0 C0.640625 1.80078125 0.640625 1.80078125 1 4 C-3 9.66666667 -3 9.66666667 -7 11 C-5.22054913 6.95579349 -2.60470327 3.53921513 0 0 Z " fill="#D2E071" transform="translate(1275,1161)"/>
<path d="M0 0 C-0.639375 0.309375 -1.27875 0.61875 -1.9375 0.9375 C-3.93610821 1.8345163 -3.93610821 1.8345163 -5 3 C-6.85287502 3.07226502 -8.70833878 3.0838122 -10.5625 3.0625 C-11.57441406 3.05347656 -12.58632813 3.04445313 -13.62890625 3.03515625 C-14.41136719 3.02355469 -15.19382812 3.01195312 -16 3 C-16 2.67 -16 2.34 -16 2 C-10.42932723 0.40837921 -5.78898419 -0.20674944 0 0 Z " fill="#D3E176" transform="translate(1020,1327)"/>
<path d="M0 0 C0.75 1.6875 0.75 1.6875 1 4 C-1.13381449 7.2769294 -2.25018012 8.75006004 -6 10 C-4.6302836 6.00499382 -2.74277578 3.19990508 0 0 Z " fill="#D4E179" transform="translate(1288,1143)"/>
<path d="M0 0 C0.33 1.32 0.66 2.64 1 4 C0.01 4.33 -0.98 4.66 -2 5 C-2.33 5.99 -2.66 6.98 -3 8 C-5.0625 9.1875 -5.0625 9.1875 -7 10 C-5.33248852 6.05860922 -2.77289351 3.2107188 0 0 Z " fill="#D3E176" transform="translate(1265,1174)"/>
<path d="M0 0 C0.66 0.33 1.32 0.66 2 1 C-3 7.57142857 -3 7.57142857 -8 9 C-5.89851796 5.01824456 -3.63094642 2.64960955 0 0 Z " fill="#D2E071" transform="translate(1477,352)"/>
<path d="M0 0 C5.19591612 0.44033187 8.66335081 0.88303339 13 4 C11 5 11 5 8.90625 4.51171875 C8.1121875 4.23972656 7.318125 3.96773438 6.5 3.6875 C5.7059375 3.42324219 4.911875 3.15898437 4.09375 2.88671875 C2 2 2 2 0 0 Z " fill="#B3DAEA" transform="translate(421,259)"/>
<path d="M0 0 C0.33 0 0.66 0 1 0 C1.19392201 5.52677733 0.7479503 9.75614911 -1 15 C-1.33 15 -1.66 15 -2 15 C-2 12.03 -2 9.06 -2 6 C-1.34 6 -0.68 6 0 6 C0 4.02 0 2.04 0 0 Z " fill="#CDDC6B" transform="translate(1434,426)"/>
<path d="M0 0 C0 3.17370278 -0.30933342 4.3794668 -2 7 C-4.125 8.25 -4.125 8.25 -6 9 C-4.47291037 5.56404834 -2.40072955 2.88087546 0 0 Z " fill="#D3E176" transform="translate(163,1296)"/>
<path d="M0 0 C0.97791242 2.64036353 1.03638105 3.87266632 0.25 6.625 C-1 9 -1 9 -4 11 C-3.52269162 9.5410574 -3.04308958 8.08286504 -2.5625 6.625 C-2.29566406 5.81289062 -2.02882813 5.00078125 -1.75390625 4.1640625 C-1 2 -1 2 0 0 Z " fill="#DCE698" transform="translate(1347,1031)"/>
<path d="M0 0 C0.66 0.33 1.32 0.66 2 1 C1.01 1.33 0.02 1.66 -1 2 C-2.20882096 4.00016466 -2.20882096 4.00016466 -3 6 C-4.32 5.67 -5.64 5.34 -7 5 C-4.69 3.35 -2.38 1.7 0 0 Z " fill="#D7E381" transform="translate(220,1246)"/>
<path d="M0 0 C0.66 0.33 1.32 0.66 2 1 C0.68 1.33 -0.64 1.66 -2 2 C-2 2.66 -2 3.32 -2 4 C-5 6 -5 6 -7.1875 5.625 C-7.785625 5.41875 -8.38375 5.2125 -9 5 C-6 3 -6 3 -3 3 C-3 2.34 -3 1.68 -3 1 C-2.01 0.67 -1.02 0.34 0 0 Z " fill="#BCDFEC" transform="translate(253,269)"/>
<path d="M0 0 C2 1 2 1 3.125 3.75 C3.91973395 6.70186896 4.17810598 8.97219837 4 12 C1.95780294 10.30820672 1.08206694 9.36272334 0.48828125 6.73828125 C0.43027344 5.93777344 0.37226562 5.13726562 0.3125 4.3125 C0.24675781 3.50425781 0.18101562 2.69601563 0.11328125 1.86328125 C0.07589844 1.24839844 0.03851562 0.63351563 0 0 Z " fill="#A9D6E8" transform="translate(566,172)"/>
<path d="M0 0 C2 1 2 1 3.125 3.75 C3.91973395 6.70186896 4.17810598 8.97219837 4 12 C1.95780294 10.30820672 1.08206694 9.36272334 0.48828125 6.73828125 C0.43027344 5.93777344 0.37226562 5.13726562 0.3125 4.3125 C0.24675781 3.50425781 0.18101562 2.69601563 0.11328125 1.86328125 C0.07589844 1.24839844 0.03851562 0.63351563 0 0 Z " fill="#A9D6E8" transform="translate(538,83)"/>
<path d="M0 0 C2 1 2 1 3.125 3.75 C3.91973395 6.70186896 4.17810598 8.97219837 4 12 C1.95780294 10.30820672 1.08206694 9.36272334 0.48828125 6.73828125 C0.43027344 5.93777344 0.37226562 5.13726562 0.3125 4.3125 C0.24675781 3.50425781 0.18101562 2.69601563 0.11328125 1.86328125 C0.07589844 1.24839844 0.03851562 0.63351563 0 0 Z " fill="#A9D6E8" transform="translate(521,27)"/>
<path d="M0 0 C-2.39763185 2.39763185 -3.33273498 2.34280586 -6.625 2.625 C-7.44226563 2.69976563 -8.25953125 2.77453125 -9.1015625 2.8515625 C-9.72804688 2.90054687 -10.35453125 2.94953125 -11 3 C-4.23255814 -1.51162791 -4.23255814 -1.51162791 0 0 Z " fill="#D8E484" transform="translate(294,1211)"/>
<path d="M0 0 C0 3 0 3 -1.8125 5.125 C-4 7 -4 7 -7 8 C-7 7.34 -7 6.68 -7 6 C-5.46875 4.4921875 -5.46875 4.4921875 -3.5 2.875 C-2.8503125 2.33617187 -2.200625 1.79734375 -1.53125 1.2421875 C-1.0259375 0.83226562 -0.520625 0.42234375 0 0 Z " fill="#CFDE69" transform="translate(1468,361)"/>
</svg>
