<?xml version="1.0" encoding="UTF-8"?>
<svg xmlns="http://www.w3.org/2000/svg" xmlns:xlink="http://www.w3.org/1999/xlink" width="50px" height="40px" viewBox="0 0 50 40" version="1.1">
<g id="surface1">
<path style="fill:none;stroke-width:1.34769;stroke-linecap:round;stroke-linejoin:round;stroke:rgb(100%,100%,100%);stroke-opacity:1;stroke-miterlimit:4;" d="M 13.751016 41.359082 C 18.848125 41.359082 22.980469 38.040625 22.980469 33.946484 C 22.980469 29.852344 18.848125 26.533887 13.751016 26.533887 C 8.649766 26.533887 4.517422 29.852344 4.517422 33.946484 C 4.517422 38.040625 8.649766 41.359082 13.751016 41.359082 Z M 13.751016 41.359082 " transform="matrix(0.943396,0,0,0.851064,0,0)"/>
<path style="fill:none;stroke-width:1.34769;stroke-linecap:round;stroke-linejoin:round;stroke:rgb(100%,100%,100%);stroke-opacity:1;stroke-miterlimit:4;" d="M 13.751016 45.875488 C 20.790078 45.875488 26.5 40.491602 26.5 33.850098 C 26.5 27.204004 20.790078 21.820117 13.751016 21.820117 C 6.707813 21.820117 1.002031 27.204004 1.002031 33.850098 C 1.002031 40.491602 6.707813 45.875488 13.751016 45.875488 Z M 13.751016 45.875488 " transform="matrix(0.943396,0,0,0.851064,0,0)"/>
<path style="fill:none;stroke-width:1.34769;stroke-linecap:round;stroke-linejoin:round;stroke:rgb(100%,100%,100%);stroke-opacity:1;stroke-miterlimit:4;" d="M 26.5 20.539551 C 31.597109 20.539551 35.733594 17.221094 35.733594 13.126953 C 35.733594 9.032813 31.597109 5.714355 26.5 5.714355 C 21.402891 5.714355 17.270547 9.032813 17.270547 13.126953 C 17.270547 17.221094 21.402891 20.539551 26.5 20.539551 Z M 26.5 20.539551 " transform="matrix(0.943396,0,0,0.851064,0,0)"/>
<path style="fill:none;stroke-width:1.34769;stroke-linecap:round;stroke-linejoin:round;stroke:rgb(100%,100%,100%);stroke-opacity:1;stroke-miterlimit:4;" d="M 26.5 25.055957 C 33.543203 25.055957 39.248984 19.67207 39.248984 13.025977 C 39.248984 6.384473 33.543203 1.000586 26.5 1.000586 C 19.456797 1.000586 13.751016 6.384473 13.751016 13.025977 C 13.751016 19.67207 19.456797 25.055957 26.5 25.055957 Z M 26.5 25.055957 " transform="matrix(0.943396,0,0,0.851064,0,0)"/>
<path style="fill:none;stroke-width:1.34769;stroke-linecap:round;stroke-linejoin:round;stroke:rgb(100%,100%,100%);stroke-opacity:1;stroke-miterlimit:4;" d="M 39.248984 41.483008 C 44.350234 41.483008 48.482578 38.164551 48.482578 34.07041 C 48.482578 29.97627 44.350234 26.657813 39.248984 26.657813 C 34.151875 26.657813 30.019531 29.97627 30.019531 34.07041 C 30.019531 38.164551 34.151875 41.483008 39.248984 41.483008 Z M 39.248984 41.483008 " transform="matrix(0.943396,0,0,0.851064,0,0)"/>
<path style="fill:none;stroke-width:1.34769;stroke-linecap:round;stroke-linejoin:round;stroke:rgb(100%,100%,100%);stroke-opacity:1;stroke-miterlimit:4;" d="M 39.248984 45.999414 C 46.292188 45.999414 51.997969 40.615527 51.997969 33.974023 C 51.997969 27.32793 46.292188 21.944043 39.248984 21.944043 C 32.209922 21.944043 26.5 27.32793 26.5 33.974023 C 26.5 40.615527 32.209922 45.999414 39.248984 45.999414 Z M 39.248984 45.999414 " transform="matrix(0.943396,0,0,0.851064,0,0)"/>
</g>
</svg>
