<?xml version="1.0" encoding="UTF-8"?>
<svg xmlns="http://www.w3.org/2000/svg" xmlns:xlink="http://www.w3.org/1999/xlink" width="50px" height="40px" viewBox="0 0 50 40" version="1.1">
<g id="surface1">
<path style="fill:none;stroke-width:1;stroke-linecap:round;stroke-linejoin:round;stroke:#148FBE;stroke-opacity:1;stroke-miterlimit:10;" d="M 57.839219 9.640625 C 58.16375 11.136719 57.955469 13.550781 57.224063 15.40625 L 56.739688 18.957031 L 55.2575 24.226562 C 55.1025 24.789062 54.661719 25.167969 54.1725 25.167969 L 54.0175 25.167969 C 53.237656 25.167969 52.680625 24.25 52.922812 23.359375 L 53.886719 18.554688 C 53.886719 18.554688 51.445469 13.285156 52.113906 10.84375 " transform="matrix(0.806452,0,0,1,0,0)"/>
<path style="fill:none;stroke-width:1;stroke-linecap:round;stroke-linejoin:round;stroke:#148FBE;stroke-opacity:1;stroke-miterlimit:10;" d="M 40.808594 8.679688 L 41.714375 14.289062 L 40.217656 24.691406 C 40.140156 25.367188 39.670313 25.878906 39.09875 25.894531 L 38.919531 25.898438 C 38.13 25.917969 37.558437 25.003906 37.800625 24.105469 C 38.289844 22.273438 38.381875 19.308594 37.655313 17.289062 C 36.831875 14.980469 37.209688 13.878906 37.209688 13.878906 " transform="matrix(0.806452,0,0,1,0,0)"/>
<path style="fill:none;stroke-width:1;stroke-linecap:round;stroke-linejoin:round;stroke:#148FBE;stroke-opacity:1;stroke-miterlimit:10;" d="M 43.588906 17.371094 C 43.588906 17.371094 50.738281 18.273438 52.680625 16.378906 " transform="matrix(0.806452,0,0,1,0,0)"/>
<path style="fill:none;stroke-width:1;stroke-linecap:round;stroke-linejoin:round;stroke:#148FBE;stroke-opacity:1;stroke-miterlimit:10;" d="M 61.002187 17.289062 C 61.002187 17.289062 59.718594 14.765625 60.265937 10.929688 C 61.283125 3.828125 56.453906 3.058594 56.453906 3.058594 L 56.255313 2.96875 L 41.714375 2.542969 L 36.216719 3.238281 " transform="matrix(0.806452,0,0,1,0,0)"/>
<path style="fill:none;stroke-width:1;stroke-linecap:round;stroke-linejoin:round;stroke:#148FBE;stroke-opacity:1;stroke-miterlimit:10;" d="M 57.190156 15.640625 L 59.055 18.28125 L 59.01625 24.019531 C 59.01625 24.652344 58.59 25.167969 58.062031 25.167969 L 57.069063 25.167969 " transform="matrix(0.806452,0,0,1,0,0)"/>
<path style="fill:none;stroke-width:1;stroke-linecap:round;stroke-linejoin:round;stroke:#148FBE;stroke-opacity:1;stroke-miterlimit:10;" d="M 27.057188 2.082031 C 28.234219 3.828125 29.41125 3.828125 29.41125 3.828125 " transform="matrix(0.806452,0,0,1,0,0)"/>
<path style="fill:none;stroke-width:1;stroke-linecap:round;stroke-linejoin:round;stroke:#148FBE;stroke-opacity:1;stroke-miterlimit:10;" d="M 33.668906 1 C 34.511719 2.957031 32.642031 3.957031 32.642031 3.957031 C 32.642031 3.957031 31.03875 1.359375 29.41125 3.828125 L 28.195469 5.546875 C 28.195469 5.546875 26.945781 7.933594 26.073906 9.304688 C 25.826875 9.683594 26.267656 10.96875 26.475938 11.378906 C 26.868281 12.136719 29.638906 12.605469 32.225469 11.523438 C 32.225469 11.523438 34.380938 11.75 34.787813 16.378906 C 34.865313 17.261719 36.405625 18.453125 37.674687 18.257812 " transform="matrix(0.806452,0,0,1,0,0)"/>
<path style="fill:none;stroke-width:1;stroke-linecap:round;stroke-linejoin:round;stroke:#148FBE;stroke-opacity:1;stroke-miterlimit:10;" d="M 33.48 8.433594 C 36.294219 9.5 36.434688 6.742188 36.434688 6.742188 L 36.434688 6.566406 C 35.06875 4.667969 33.799687 6.03125 33.799687 6.03125 " transform="matrix(0.806452,0,0,1,0,0)"/>
<path style=" stroke:none;fill-rule:nonzero;fill:#148FBE;fill-opacity:0.8;" d="M 4.675781 6.183594 C 5.542969 6.183594 6.246094 5.246094 6.246094 4.089844 C 6.246094 2.9375 5.542969 2 4.675781 2 C 4.097656 2 3.589844 2.421875 3.316406 3.046875 L 3.105469 3.046875 C 1.804688 3.046875 0.753906 4.449219 0.753906 6.183594 L 0.753906 15.589844 L 2.320312 15.589844 L 2.320312 6.183594 C 2.320312 5.605469 2.671875 5.136719 3.105469 5.136719 L 3.316406 5.136719 C 3.589844 5.761719 4.097656 6.183594 4.675781 6.183594 Z M 4.675781 6.183594 "/>
<path style=" stroke:none;fill-rule:evenodd;fill:#148FBE;fill-opacity:0.8;" d="M 3.234375 15.589844 L 0.753906 15.589844 C 0.320312 15.589844 -0.0351562 16.0625 0.00390625 16.636719 C 0.183594 19.304688 1.0625 21.816406 2.496094 23.722656 C 3.546875 25.125 4.839844 26.125 6.246094 26.65625 L 6.246094 29.183594 C 6.246094 30.550781 6.902344 31.710938 7.816406 32.140625 C 7.851562 36.289062 10.386719 39.636719 13.507812 39.636719 C 16.652344 39.636719 19.199219 36.246094 19.199219 32.058594 L 19.199219 27.875 C 19.199219 25.710938 20.515625 23.957031 22.140625 23.957031 C 23.769531 23.957031 25.085938 25.710938 25.085938 27.875 L 25.085938 30.40625 C 24.171875 30.839844 23.515625 32 23.515625 33.367188 C 23.515625 35.097656 24.570312 36.503906 25.871094 36.503906 C 27.171875 36.503906 28.226562 35.097656 28.226562 33.367188 C 28.226562 32 27.570312 30.839844 26.65625 30.40625 L 26.65625 27.875 C 26.65625 24.554688 24.636719 21.863281 22.140625 21.863281 C 19.648438 21.863281 17.628906 24.554688 17.628906 27.875 L 17.628906 32.058594 C 17.628906 35.089844 15.785156 37.546875 13.507812 37.546875 C 11.253906 37.546875 9.421875 35.132812 9.386719 32.140625 C 10.300781 31.710938 10.957031 30.550781 10.957031 29.183594 L 10.957031 26.65625 C 12.363281 26.125 13.65625 25.125 14.707031 23.722656 C 16.140625 21.816406 17.019531 19.304688 17.199219 16.636719 C 17.238281 16.0625 16.886719 15.589844 16.453125 15.589844 L 16.453125 6.183594 C 16.453125 4.449219 15.398438 3.046875 14.097656 3.046875 L 13.886719 3.046875 C 13.613281 2.421875 13.109375 2 12.527344 2 C 11.660156 2 10.957031 2.9375 10.957031 4.089844 C 10.957031 5.246094 11.660156 6.183594 12.527344 6.183594 C 13.109375 6.183594 13.613281 5.761719 13.886719 5.136719 L 14.097656 5.136719 C 14.53125 5.136719 14.882812 5.605469 14.882812 6.183594 L 14.882812 15.589844 L 13.972656 15.589844 C 13.539062 15.589844 13.191406 16.0625 13.117188 16.632812 C 12.957031 17.867188 12.515625 19.011719 11.84375 19.910156 C 10.984375 21.054688 9.816406 21.699219 8.601562 21.699219 C 7.386719 21.699219 6.21875 21.054688 5.359375 19.910156 C 4.6875 19.011719 4.246094 17.867188 4.085938 16.632812 C 4.011719 16.0625 3.667969 15.589844 3.234375 15.589844 Z M 14.550781 17.683594 L 15.488281 17.683594 C 15.195312 19.398438 14.546875 20.980469 13.597656 22.246094 C 12.273438 24.011719 10.476562 25 8.601562 25 C 6.726562 25 4.929688 24.011719 3.605469 22.246094 C 2.65625 20.980469 2.007812 19.398438 1.714844 17.683594 L 2.652344 17.683594 C 2.925781 19.074219 3.472656 20.355469 4.25 21.386719 C 5.40625 22.925781 6.96875 23.789062 8.601562 23.789062 C 10.234375 23.789062 11.800781 22.925781 12.953125 21.386719 C 13.730469 20.355469 14.277344 19.074219 14.550781 17.683594 Z M 25.871094 32.320312 C 26.304688 32.320312 26.65625 32.789062 26.65625 33.367188 C 26.65625 33.941406 26.304688 34.410156 25.871094 34.410156 C 25.4375 34.410156 25.085938 33.941406 25.085938 33.367188 C 25.085938 32.789062 25.4375 32.320312 25.871094 32.320312 Z M 9.386719 27.09375 L 9.386719 29.183594 C 9.386719 29.761719 9.035156 30.230469 8.601562 30.230469 C 8.167969 30.230469 7.816406 29.761719 7.816406 29.183594 L 7.816406 27.09375 Z M 9.386719 27.09375 "/>
</g>
</svg>
