<?xml version="1.0" encoding="UTF-8"?>
<svg xmlns="http://www.w3.org/2000/svg" xmlns:xlink="http://www.w3.org/1999/xlink" width="50px" height="40px" viewBox="0 0 50 40" version="1.1">
<g id="surface1">
<path style=" stroke:none;fill-rule:nonzero;fill:#FFF;fill-opacity:1;" d="M 40.136719 19.488281 C 39.582031 22.070312 38.882812 24.011719 38.035156 25.316406 C 37.941406 25.648438 37.566406 26.332031 36.914062 27.371094 C 36.261719 28.40625 35.675781 29.535156 35.15625 30.765625 C 34.636719 31.992188 34.375 33.195312 34.375 34.371094 C 34.375 36.082031 33.683594 37.328125 32.300781 38.109375 C 30.917969 38.890625 28.484375 39.28125 25 39.28125 C 21.515625 39.28125 19.082031 38.890625 17.699219 38.109375 C 16.316406 37.328125 15.625 36.082031 15.625 34.371094 C 15.625 33.195312 15.363281 31.992188 14.84375 30.765625 C 14.324219 29.535156 13.738281 28.40625 13.085938 27.371094 C 12.433594 26.332031 12.058594 25.648438 11.964844 25.316406 C 11.117188 24.011719 10.417969 22.070312 9.863281 19.488281 C 9.472656 19.5625 9.066406 19.609375 8.644531 19.621094 C 8.21875 19.632812 7.738281 19.628906 7.203125 19.601562 C 6.664062 19.574219 6.210938 19.550781 5.835938 19.523438 C 5.460938 19.5 4.949219 19.433594 4.296875 19.332031 C 3.644531 19.230469 3.183594 19.160156 2.90625 19.121094 C 2.628906 19.082031 2.117188 19 1.367188 18.871094 C 0.617188 18.746094 0.164062 18.667969 0 18.640625 C 0.714844 17.875 1.261719 17.320312 1.636719 16.972656 C 2.011719 16.628906 2.539062 16.246094 3.222656 15.824219 C 3.90625 15.402344 4.664062 15.113281 5.492188 14.960938 C 6.324219 14.804688 7.308594 14.730469 8.449219 14.730469 C 8.609375 14.730469 8.9375 14.769531 9.425781 14.84375 C 9.457031 14.078125 9.601562 13.398438 9.863281 12.8125 C 9.503906 11.867188 9.34375 10.945312 9.375 10.050781 C 9.375 9.386719 9.382812 8.867188 9.398438 8.496094 C 9.414062 8.125 9.480469 7.570312 9.59375 6.828125 C 9.707031 6.085938 9.894531 5.445312 10.15625 4.910156 C 10.417969 4.371094 10.765625 3.777344 11.207031 3.125 C 11.644531 2.472656 12.238281 1.886719 12.988281 1.363281 C 13.738281 0.835938 14.617188 0.382812 15.625 0 C 14.421875 1.867188 13.820312 3.542969 13.820312 5.023438 C 13.820312 6.304688 14.09375 7.542969 14.648438 8.746094 C 17.1875 7.824219 20.636719 7.363281 25 7.363281 C 29.363281 7.363281 32.8125 7.824219 35.351562 8.746094 C 35.90625 7.542969 36.179688 6.304688 36.179688 5.023438 C 36.179688 3.542969 35.578125 1.867188 34.375 0 C 35.382812 0.382812 36.261719 0.835938 37.011719 1.363281 C 37.761719 1.886719 38.355469 2.472656 38.792969 3.125 C 39.234375 3.777344 39.582031 4.371094 39.84375 4.910156 C 40.105469 5.445312 40.292969 6.085938 40.40625 6.828125 C 40.519531 7.570312 40.585938 8.125 40.601562 8.496094 C 40.617188 8.867188 40.625 9.386719 40.625 10.050781 C 40.65625 10.917969 40.496094 11.839844 40.136719 12.8125 C 40.398438 13.398438 40.542969 14.078125 40.578125 14.84375 C 41.066406 14.769531 41.390625 14.730469 41.550781 14.730469 C 42.691406 14.730469 43.675781 14.804688 44.507812 14.960938 C 45.335938 15.113281 46.09375 15.402344 46.777344 15.824219 C 47.460938 16.246094 47.988281 16.628906 48.363281 16.972656 C 48.738281 17.320312 49.285156 17.875 50 18.640625 C 49.835938 18.667969 49.382812 18.746094 48.632812 18.871094 C 47.882812 19 47.371094 19.082031 47.09375 19.121094 C 46.816406 19.160156 46.355469 19.230469 45.703125 19.332031 C 45.050781 19.433594 44.539062 19.5 44.164062 19.523438 C 43.789062 19.550781 43.335938 19.574219 42.796875 19.601562 C 42.261719 19.628906 41.78125 19.632812 41.355469 19.621094 C 40.933594 19.609375 40.527344 19.5625 40.136719 19.488281 Z M 25 12.273438 C 22.429688 12.273438 20.222656 12.652344 18.382812 13.40625 C 16.542969 14.160156 15.625 15.074219 15.625 16.148438 C 15.625 16.992188 15.925781 17.902344 16.527344 18.871094 C 17.128906 19.84375 18 20.5625 19.140625 21.019531 C 19.53125 21.175781 19.832031 21.328125 20.042969 21.480469 C 20.253906 21.632812 20.53125 21.910156 20.875 22.304688 C 21.214844 22.703125 21.46875 23.296875 21.632812 24.089844 C 21.792969 24.882812 21.875 25.855469 21.875 27.003906 C 21.875 28.105469 21.710938 29.0625 21.386719 29.882812 C 21.0625 30.699219 20.703125 31.300781 20.3125 31.683594 C 19.921875 32.066406 19.5625 32.535156 19.238281 33.085938 C 18.914062 33.632812 18.75 34.230469 18.75 34.867188 C 18.75 35.457031 19.449219 35.929688 20.847656 36.289062 C 22.25 36.644531 23.632812 36.824219 25 36.824219 C 26.367188 36.824219 27.75 36.644531 29.152344 36.289062 C 30.550781 35.929688 31.25 35.457031 31.25 34.867188 C 31.25 34.230469 31.085938 33.632812 30.761719 33.085938 C 30.4375 32.535156 30.078125 32.066406 29.6875 31.683594 C 29.296875 31.300781 28.9375 30.699219 28.613281 29.882812 C 28.289062 29.0625 28.125 28.105469 28.125 27.003906 C 28.125 25.855469 28.214844 24.882812 28.394531 24.089844 C 28.574219 23.296875 28.832031 22.695312 29.175781 22.285156 C 29.515625 21.878906 29.792969 21.601562 30.003906 21.460938 C 30.214844 21.320312 30.5 21.175781 30.859375 21.019531 C 31.964844 20.5625 32.828125 19.839844 33.449219 18.855469 C 34.066406 17.867188 34.375 16.96875 34.375 16.148438 C 34.375 15.074219 33.457031 14.160156 31.617188 13.40625 C 29.777344 12.652344 27.570312 12.273438 25 12.273438 Z M 25 12.273438 "/>
</g>
</svg>
