<svg width="120" height="115" viewBox="0 0 120 115" fill="none" xmlns="http://www.w3.org/2000/svg">
<path d="M108.75 17.9688H11.25C9.17578 17.9688 7.5 19.5747 7.5 21.5625V93.4375C7.5 95.4253 9.17578 97.0312 11.25 97.0312H108.75C110.824 97.0312 112.5 95.4253 112.5 93.4375V21.5625C112.5 19.5747 110.824 17.9688 108.75 17.9688ZM15.9375 26.0547H104.062V39.5312H15.9375V26.0547ZM104.062 88.9453H15.9375V49.4141H104.062V88.9453ZM76.2891 81.7578H95.625C96.1406 81.7578 96.5625 81.3535 96.5625 80.8594V72.7734C96.5625 72.2793 96.1406 71.875 95.625 71.875H76.2891C75.7734 71.875 75.3516 72.2793 75.3516 72.7734V80.8594C75.3516 81.3535 75.7734 81.7578 76.2891 81.7578Z" fill="black" fill-opacity="0.6"/>
</svg>
