<svg width="89" height="56" viewBox="0 0 89 56" fill="none" xmlns="http://www.w3.org/2000/svg">
<path d="M54.0365 0.00580564C53.2733 -0.0168298 52.491 0.0262053 51.6963 0.144031C49.6647 0.444706 47.758 1.19723 45.7995 1.82002C43.8411 2.44281 41.9011 2.92582 40.453 2.92582C39.5299 2.92582 37.8621 2.90178 36.1782 2.92007C34.4943 2.93835 32.8839 2.96191 31.4631 3.21955C28.9531 3.67546 26.7793 4.77032 25.2535 6.43906C23.7277 8.10781 22.916 10.2016 22.5426 12.377C22.5406 12.3904 22.5387 12.4039 22.5368 12.4173L20.7527 23.6712C11.4288 24.1956 4.67339 29.8919 1.0119 37.5399C-0.59709 40.8988 -0.1984 44.6126 1.57957 47.3308C3.35754 50.0491 6.29775 51.8909 9.67749 52.618C33.916 57.8325 54.6835 56.2385 77.276 53.0499C77.2914 53.0501 77.3069 53.0501 77.3223 53.0499C77.332 53.05 77.3416 53.05 77.3513 53.0499V53.0442C77.3958 53.0413 77.4402 53.0375 77.4845 53.0327C77.5082 53.0294 77.5303 53.0304 77.554 53.0269C77.5734 53.0233 77.5927 53.0194 77.6119 53.0154C77.9039 52.9673 78.187 52.8761 78.4519 52.7447C82.2836 51.9508 85.1457 50.3513 86.7989 48.1832C88.5872 45.838 89 43.2067 89 41.2086C89 31.1803 81.2365 19.0909 66.919 15.251L65.1812 8.54701C65.1756 8.52775 65.1698 8.50855 65.1639 8.48941C63.796 3.62612 59.3788 0.164255 54.0365 0.00580564ZM53.9612 5.85736C57.0085 5.81488 58.6854 7.37649 59.4467 10.0732L59.4524 10.079L61.5088 17.9867L61.5146 18.004C61.5443 18.2708 61.6106 18.5324 61.7115 18.7815L62.1981 20.6475C62.214 20.7289 62.2333 20.8096 62.256 20.8894C62.5888 22.0742 61.5345 24.4309 60.136 25.2435C59.2839 25.7379 55.9817 26.9856 52.1423 27.8813C48.5461 28.7204 44.3331 29.3502 40.4878 29.4249C36.7967 26.7846 32.4456 24.6252 26.7306 23.867L28.3931 13.3734C28.6366 11.9542 29.0652 11.0342 29.6384 10.4073C30.2117 9.78039 30.9965 9.29763 32.5289 9.01928C33.027 8.92896 34.6642 8.83483 36.2419 8.8177C37.8196 8.80058 39.4247 8.82346 40.453 8.82346C43.0651 8.82346 45.4828 8.11662 47.6068 7.4412C49.7307 6.76578 51.6338 6.11125 52.571 5.97255C53.0636 5.89951 53.5258 5.86343 53.9612 5.85736ZM68.6915 22.0643C78.2756 26.0995 83.0685 35.008 83.0685 41.2086C83.0685 42.4189 82.8313 43.6284 82.0722 44.6239C81.3245 45.6044 79.9042 46.626 76.7431 47.1581C67.78 47.7822 62.0552 46.217 57.5235 43.5988C61.2604 42.8129 64.6037 41.6258 66.8205 40.3389C66.8224 40.337 66.8244 40.3351 66.8263 40.3332C70.2327 38.3534 71.947 34.316 70.8868 30.5249L68.6915 22.0643ZM64.4745 29.4133L65.1581 32.0511C65.1618 32.0685 65.1656 32.0857 65.1696 32.103C65.5118 33.3232 65.0203 34.551 63.8316 35.2419C61.8384 36.3989 55.9891 38.3072 50.8564 38.5478C50.3187 38.0549 49.7835 37.5653 49.2461 37.0561C48.4859 36.3358 47.6613 35.5821 46.8769 34.8387C49.1839 34.5291 51.4297 34.106 53.4978 33.6235C57.6904 32.6453 60.9786 31.5802 63.1249 30.3348C63.1268 30.3348 63.1288 30.3348 63.1307 30.3348C63.6017 30.0612 64.053 29.7515 64.4745 29.4133ZM22.1198 29.4652C29.1383 29.4652 33.582 31.4475 37.4409 34.3607C37.6949 34.6449 38.0018 34.8776 38.3446 35.046C40.631 36.8957 42.7573 39.0559 45.1508 41.3238C45.8947 42.0287 46.673 42.7332 47.4909 43.426C47.7535 43.7406 48.079 43.9976 48.4467 44.1805C48.4525 44.1843 48.4583 44.1882 48.4641 44.192C50.6409 45.9478 53.0531 47.6271 55.8206 49.0644C41.2594 50.1585 26.8246 50.2783 10.9287 46.8586C8.90775 46.4238 7.3325 45.3141 6.54953 44.1171C5.76657 42.9201 5.562 41.7544 6.36417 40.0798C9.52732 33.4727 14.2816 29.4652 22.1198 29.4652Z" fill="black" fill-opacity="0.1"/>
</svg>
