<?xml version="1.0" encoding="UTF-8"?>
<svg xmlns="http://www.w3.org/2000/svg" xmlns:xlink="http://www.w3.org/1999/xlink" width="50px" height="40px" viewBox="0 0 50 40" version="1.1">
<g id="surface1">
<path style="fill:none;stroke-width:1.77568;stroke-linecap:round;stroke-linejoin:round;stroke:rgb(100%,100%,100%);stroke-opacity:1;stroke-miterlimit:10;" d="M 45.573281 13.196094 C 46.0275 15.311328 45.736641 18.714258 44.712656 21.337891 L 44.035313 26.347656 L 41.963437 33.788086 C 41.744297 34.578516 41.130703 35.112891 40.437422 35.112891 L 40.22625 35.112891 C 39.130547 35.112891 38.357578 33.821484 38.69625 32.563477 L 40.042969 25.779883 C 40.042969 25.779883 36.620391 18.343164 37.560703 14.895703 " transform="matrix(0.980392,0,0,1.052632,0,0)"/>
<path style="fill:none;stroke-width:1.77568;stroke-linecap:round;stroke-linejoin:round;stroke:rgb(100%,100%,100%);stroke-opacity:1;stroke-miterlimit:10;" d="M 21.734766 11.841602 L 23.001797 19.760742 L 20.902031 34.444922 C 20.798438 35.398633 20.137031 36.118555 19.340156 36.137109 L 19.085156 36.144531 C 17.981484 36.170508 17.184609 34.886523 17.519297 33.613672 C 18.204609 31.027148 18.332109 26.844922 17.320078 23.991211 C 16.164609 20.733008 16.694531 19.178125 16.694531 19.178125 " transform="matrix(0.980392,0,0,1.052632,0,0)"/>
<path style="fill:none;stroke-width:1.77568;stroke-linecap:round;stroke-linejoin:round;stroke:rgb(100%,100%,100%);stroke-opacity:1;stroke-miterlimit:10;" d="M 25.623516 24.109961 C 25.623516 24.109961 35.63625 25.382813 38.349609 22.710938 " transform="matrix(0.980392,0,0,1.052632,0,0)"/>
<path style="fill:none;stroke-width:1.77568;stroke-linecap:round;stroke-linejoin:round;stroke:rgb(100%,100%,100%);stroke-opacity:1;stroke-miterlimit:10;" d="M 49.999922 23.991211 C 49.999922 23.991211 48.206953 20.432422 48.975938 15.018164 C 50.398359 4.991211 43.636875 3.903906 43.636875 3.903906 L 43.357969 3.777734 L 23.001797 3.176563 L 15.303984 4.159961 " transform="matrix(0.980392,0,0,1.052632,0,0)"/>
<path style="fill:none;stroke-width:1.77568;stroke-linecap:round;stroke-linejoin:round;stroke:rgb(100%,100%,100%);stroke-opacity:1;stroke-miterlimit:10;" d="M 44.664844 21.668164 L 47.274609 25.390234 L 47.222813 33.494922 C 47.222813 34.389258 46.625156 35.112891 45.884062 35.112891 L 44.493516 35.112891 " transform="matrix(0.980392,0,0,1.052632,0,0)"/>
<path style="fill:none;stroke-width:1.77568;stroke-linecap:round;stroke-linejoin:round;stroke:rgb(100%,100%,100%);stroke-opacity:1;stroke-miterlimit:10;" d="M 2.482266 2.527148 C 4.131797 4.991211 5.777344 4.991211 5.777344 4.991211 " transform="matrix(0.980392,0,0,1.052632,0,0)"/>
<path style="fill:none;stroke-width:1.77568;stroke-linecap:round;stroke-linejoin:round;stroke:rgb(100%,100%,100%);stroke-opacity:1;stroke-miterlimit:10;" d="M 11.737969 0.998242 C 12.913359 3.75918 10.299609 5.176758 10.299609 5.176758 C 10.299609 5.176758 8.052422 1.510352 5.777344 4.991211 L 4.072031 7.418164 C 4.072031 7.418164 2.322891 10.787695 1.099687 12.721094 C 0.761016 13.25918 1.374609 15.073828 1.669453 15.649023 C 2.215313 16.721484 6.096094 17.385742 9.713906 15.856836 C 9.713906 15.856836 12.734063 16.172266 13.299844 22.710938 C 13.407422 23.954102 15.566953 25.638867 17.343984 25.360547 " transform="matrix(0.980392,0,0,1.052632,0,0)"/>
<path style="fill:none;stroke-width:1.77568;stroke-linecap:round;stroke-linejoin:round;stroke:rgb(100%,100%,100%);stroke-opacity:1;stroke-miterlimit:10;" d="M 11.475 11.492773 C 15.411563 12.999414 15.606797 9.106641 15.606797 9.106641 L 15.606797 8.858008 C 13.694297 6.178711 11.92125 8.104688 11.92125 8.104688 " transform="matrix(0.980392,0,0,1.052632,0,0)"/>
</g>
</svg>
