<svg width="62" height="80" viewBox="0 0 62 80" fill="none" xmlns="http://www.w3.org/2000/svg">
<path d="M58.4062 0H2.78125C1.24287 0 0 1.2708 0 2.84375V76.7812C0 78.3542 1.24287 79.625 2.78125 79.625H58.4062C59.9446 79.625 61.1875 78.3542 61.1875 76.7812V2.84375C61.1875 1.2708 59.9446 0 58.4062 0ZM35.8086 6.39844H44.1523V25.0517L40.1108 22.0391L35.8086 25.185V6.39844ZM54.9297 73.2266H6.25781V6.39844H30.5938V32.7831C30.5938 33.0764 30.6807 33.3696 30.8545 33.6096C30.96 33.7621 31.0941 33.8917 31.2489 33.9909C31.4037 34.0901 31.5762 34.1569 31.7565 34.1875C31.9367 34.2181 32.1211 34.2118 32.299 34.169C32.4768 34.1263 32.6446 34.0479 32.7927 33.9384L40.0761 28.6152L47.1509 33.8939C47.3855 34.0717 47.6724 34.1694 47.9679 34.1694C48.7327 34.1694 49.3585 33.5296 49.3585 32.7476V6.39844H54.921V73.2266H54.9297Z" fill="#1A1A1A" fill-opacity="0.5"/>
</svg>
