<svg width="106" height="72" viewBox="0 0 106 72" fill="none" xmlns="http://www.w3.org/2000/svg">
<path d="M0.60717 17.5416L11.9311 5.72664L7.0007 2.58462L6.71205 0.136032L8.99806 0L14.9271 4.26346L22.3259 4.27009L26.8548 1.50299L28.4773 1.83478L28.454 3.63306L25.5343 6.86798L25.9192 8.56673L60.279 12.2628L95.8698 11.2675L99.7052 12.8766L102.529 16.4666L103.982 24.8641L104.237 30.8993L105.12 36.5364L104.878 42.1502L103.886 42.3526L102.446 40.7666L101.275 35.5012L102.224 28.1952L101.895 28.1455L99.6654 39.2703L101.185 48.9253L99.7981 68.1921L99.6654 70.3255L98.3117 71.4801L92.3329 71.4901L90.4053 70.9062L95.7537 62.1967L93.0994 51.135L91.7092 51.1383L86.8618 65.8431L84.3634 69.6188L83.1292 70.3786L76.5299 70.3819L75.6839 69.3235L81.3972 65.8132L85.2692 53.8855L84.2971 51.9478L82.021 52.1602L80.591 55.6572L78.5207 52.2465L76.5167 55.6705L74.8179 51.9512L69.8179 48.1091L52.0806 46.4103L49.1044 50.05L46.5961 67.8438L45.2756 70.4018L39.2305 70.3985L38.5802 69.4397L42.253 64.3268L42.6943 54.5889L40.7102 55.6904L38.62 62.1569L35.9624 70.5545L34.7713 71.4768L29.3631 71.4801L28.9152 70.2592L30.4945 68.796L35.5941 58.8291L34.4196 48.3845L28.7062 44.1575L20.3817 28.6962L10.7997 24.2735L1.99072 23.2715L1.23425 22.452L0 18.9782L0.60717 17.5416Z" fill="black" fill-opacity="0.1"/>
</svg>
