<?xml version="1.0" encoding="UTF-8"?>
<svg xmlns="http://www.w3.org/2000/svg" xmlns:xlink="http://www.w3.org/1999/xlink" width="50px" height="40px" viewBox="0 0 50 40" version="1.1">
<g id="surface1">
<path style="fill:none;stroke-width:1;stroke-linecap:round;stroke-linejoin:round;stroke:#148FBE;stroke-opacity:1;stroke-miterlimit:10;" d="M 32.837891 8.027637 C 33.16375 9.248535 32.955469 11.208398 32.223125 12.723047 L 31.739375 15.610059 L 30.257891 19.896973 C 30.103359 20.351367 29.663281 20.658887 29.169453 20.658887 L 29.018281 20.658887 C 28.235547 20.658887 27.68125 19.915332 27.926484 19.190137 L 28.887266 15.27959 C 28.887266 15.27959 26.441641 10.997266 27.113516 9.009863 " transform="matrix(1.162791,0,0,0.851064,0,0)"/>
<path style="fill:none;stroke-width:1;stroke-linecap:round;stroke-linejoin:round;stroke:#148FBE;stroke-opacity:1;stroke-miterlimit:10;" d="M 15.809219 7.247363 L 16.71625 11.814258 L 15.214609 20.27334 C 15.144063 20.824121 14.667031 21.241797 14.099297 21.250977 L 13.917891 21.255566 C 13.128438 21.269336 12.560703 20.530371 12.799219 19.795996 C 13.286328 18.304297 13.380391 15.894629 12.658125 14.251465 C 11.831719 12.374219 12.211328 11.479199 12.211328 11.479199 " transform="matrix(1.162791,0,0,0.851064,0,0)"/>
<path style="fill:none;stroke-width:1;stroke-linecap:round;stroke-linejoin:round;stroke:#148FBE;stroke-opacity:1;stroke-miterlimit:10;" d="M 18.587422 14.320312 C 18.587422 14.320312 25.739531 15.050098 27.68125 13.5125 " transform="matrix(1.162791,0,0,0.851064,0,0)"/>
<path style="fill:none;stroke-width:1;stroke-linecap:round;stroke-linejoin:round;stroke:#148FBE;stroke-opacity:1;stroke-miterlimit:10;" d="M 35.999063 14.251465 C 35.999063 14.251465 34.719141 12.199805 35.266719 9.078711 C 36.284609 3.300098 31.457187 2.675879 31.457187 2.675879 L 31.255625 2.602441 L 16.71625 2.253613 L 11.216953 2.822754 " transform="matrix(1.162791,0,0,0.851064,0,0)"/>
<path style="fill:none;stroke-width:1;stroke-linecap:round;stroke-linejoin:round;stroke:#148FBE;stroke-opacity:1;stroke-miterlimit:10;" d="M 32.189531 12.91123 L 34.053984 15.059277 L 34.017031 19.727148 C 34.017031 20.241211 33.590391 20.658887 33.059609 20.658887 L 32.068594 20.658887 " transform="matrix(1.162791,0,0,0.851064,0,0)"/>
<path style="fill:none;stroke-width:1;stroke-linecap:round;stroke-linejoin:round;stroke:#148FBE;stroke-opacity:1;stroke-miterlimit:10;" d="M 2.059297 1.881836 C 3.235078 3.300098 4.410859 3.300098 4.410859 3.300098 " transform="matrix(1.162791,0,0,0.851064,0,0)"/>
<path style="fill:none;stroke-width:1;stroke-linecap:round;stroke-linejoin:round;stroke:#148FBE;stroke-opacity:1;stroke-miterlimit:10;" d="M 8.670547 1.000586 C 9.510391 2.588672 7.642578 3.405664 7.642578 3.405664 C 7.642578 3.405664 6.036797 1.294336 4.410859 3.300098 L 3.194766 4.7 C 3.194766 4.7 1.945078 6.641504 1.071641 7.756836 C 0.829766 8.064355 1.266484 9.11084 1.478125 9.445898 C 1.867812 10.060937 4.642656 10.441895 7.226016 9.560645 C 7.226016 9.560645 9.379375 9.744238 9.785859 13.5125 C 9.863125 14.228516 11.405078 15.201563 12.671563 15.040918 " transform="matrix(1.162791,0,0,0.851064,0,0)"/>
<path style="fill:none;stroke-width:1;stroke-linecap:round;stroke-linejoin:round;stroke:#148FBE;stroke-opacity:1;stroke-miterlimit:10;" d="M 8.482422 7.05 C 11.294219 7.91748 11.435313 5.673047 11.435313 5.673047 L 11.435313 5.526172 C 10.068047 3.983984 8.801562 5.094727 8.801562 5.094727 " transform="matrix(1.162791,0,0,0.851064,0,0)"/>
<path style="fill:none;stroke-width:1;stroke-linecap:round;stroke-linejoin:round;stroke:#148FBE;stroke-opacity:1;stroke-miterlimit:10;" d="M 39.29125 32.803613 C 39.566719 33.983203 39.392031 35.883398 38.760469 37.347559 L 38.350625 40.142773 L 37.080781 44.291992 C 36.943047 44.737207 36.570156 45.030957 36.146875 45.030957 L 36.015859 45.030957 C 35.343984 45.030957 34.870312 44.310352 35.078594 43.608105 L 35.901641 39.826074 C 35.901641 39.826074 33.80875 35.676855 34.383203 33.753711 " transform="matrix(1.162791,0,0,0.851064,0,0)"/>
<path style="fill:none;stroke-width:1;stroke-linecap:round;stroke-linejoin:round;stroke:#148FBE;stroke-opacity:1;stroke-miterlimit:10;" d="M 24.694766 32.046289 L 25.470781 36.466309 L 24.184141 44.65918 C 24.123672 45.191602 23.717187 45.595508 23.230078 45.604688 L 23.072187 45.609277 C 22.396953 45.623047 21.909844 44.907031 22.114766 44.195605 C 22.531328 42.754395 22.611953 40.422754 21.990469 38.830078 C 21.285 37.00791 21.610859 36.14502 21.610859 36.14502 " transform="matrix(1.162791,0,0,0.851064,0,0)"/>
<path style="fill:none;stroke-width:1;stroke-linecap:round;stroke-linejoin:round;stroke:#148FBE;stroke-opacity:1;stroke-miterlimit:10;" d="M 27.073203 38.894336 C 27.073203 38.894336 33.204062 39.605762 34.866953 38.114063 " transform="matrix(1.162791,0,0,0.851064,0,0)"/>
<path style="fill:none;stroke-width:1;stroke-linecap:round;stroke-linejoin:round;stroke:#148FBE;stroke-opacity:1;stroke-miterlimit:10;" d="M 41.998906 38.830078 C 41.998906 38.830078 40.900391 36.842676 41.370703 33.822559 C 42.244141 28.227539 38.105391 27.62168 38.105391 27.62168 L 37.934062 27.548242 L 25.470781 27.213184 L 20.757578 27.763965 " transform="matrix(1.162791,0,0,0.851064,0,0)"/>
<path style="fill:none;stroke-width:1;stroke-linecap:round;stroke-linejoin:round;stroke:#148FBE;stroke-opacity:1;stroke-miterlimit:10;" d="M 38.733594 37.531152 L 40.332656 39.610352 L 40.299062 44.131348 C 40.299062 44.627051 39.932891 45.030957 39.479375 45.030957 L 38.629453 45.030957 " transform="matrix(1.162791,0,0,0.851064,0,0)"/>
<path style="fill:none;stroke-width:1;stroke-linecap:round;stroke-linejoin:round;stroke:#148FBE;stroke-opacity:1;stroke-miterlimit:10;" d="M 12.906719 26.850586 C 13.914531 28.227539 14.925703 28.227539 14.925703 28.227539 " transform="matrix(1.162791,0,0,0.851064,0,0)"/>
<path style="fill:none;stroke-width:1;stroke-linecap:round;stroke-linejoin:round;stroke:#148FBE;stroke-opacity:1;stroke-miterlimit:10;" d="M 18.573984 26.001465 C 19.292891 27.539062 17.693828 28.328516 17.693828 28.328516 C 17.693828 28.328516 16.316484 26.286035 14.925703 28.227539 L 13.880937 29.581543 C 13.880937 29.581543 12.809297 31.458789 12.060156 32.537402 C 11.851875 32.840332 12.228125 33.854688 12.409531 34.175977 C 12.742109 34.772656 15.120547 35.139844 17.334375 34.290723 C 17.334375 34.290723 19.182031 34.465137 19.531406 38.114063 C 19.595234 38.807129 20.918828 39.748047 22.007266 39.591992 " transform="matrix(1.162791,0,0,0.851064,0,0)"/>
<path style="fill:none;stroke-width:1;stroke-linecap:round;stroke-linejoin:round;stroke:#148FBE;stroke-opacity:1;stroke-miterlimit:10;" d="M 18.412734 31.853516 C 20.821406 32.693457 20.942344 30.522461 20.942344 30.522461 L 20.942344 30.384766 C 19.769922 28.888477 18.684844 29.9625 18.684844 29.9625 " transform="matrix(1.162791,0,0,0.851064,0,0)"/>
</g>
</svg>
