<?xml version="1.0" encoding="UTF-8"?>
<svg xmlns="http://www.w3.org/2000/svg" xmlns:xlink="http://www.w3.org/1999/xlink" width="50px" height="40px" viewBox="0 0 50 40" version="1.1">
<g id="surface1">
<path style=" stroke:none;fill-rule:nonzero;fill:rgb(100%,100%,100%);fill-opacity:1;" d="M 39.960938 0.03125 C 41.089844 0.195312 41.839844 1.0625 41.636719 1.96875 L 39.808594 10 L 47.917969 10 C 49.066406 10 50 10.746094 50 11.667969 C 50 12.585938 49.066406 13.332031 47.917969 13.332031 L 39.046875 13.332031 L 36.011719 26.664062 L 43.75 26.664062 C 44.898438 26.664062 45.832031 27.410156 45.832031 28.328125 C 45.832031 29.25 44.902344 29.996094 43.75 29.996094 L 35.253906 29.996094 L 33.289062 38.625 C 33.082031 39.53125 31.996094 40.132812 30.863281 39.964844 C 29.734375 39.800781 28.980469 38.933594 29.1875 38.027344 L 31.015625 29.996094 L 14.425781 29.996094 L 12.460938 38.632812 C 12.253906 39.535156 11.171875 40.136719 10.039062 39.972656 C 8.90625 39.808594 8.15625 38.941406 8.363281 38.035156 L 10.191406 29.996094 L 2.082031 30 C 0.933594 30 0 29.253906 0 28.332031 C 0 27.410156 0.933594 26.664062 2.082031 26.664062 L 10.949219 26.664062 L 13.980469 13.328125 L 6.234375 13.328125 C 5.082031 13.328125 4.148438 12.582031 4.148438 11.664062 C 4.148438 10.742188 5.082031 9.996094 6.234375 9.996094 L 14.738281 9.996094 L 16.699219 1.367188 C 16.90625 0.464844 17.992188 -0.136719 19.121094 0.0273438 C 20.253906 0.191406 21.003906 1.058594 20.800781 1.964844 L 18.972656 9.996094 L 35.570312 10 L 37.535156 1.371094 C 37.742188 0.464844 38.828125 -0.136719 39.960938 0.03125 Z M 18.214844 13.332031 L 15.183594 26.664062 L 31.777344 26.664062 L 34.8125 13.332031 Z M 18.214844 13.332031 "/>
</g>
</svg>
