<?xml version="1.0" encoding="UTF-8"?>
<svg xmlns="http://www.w3.org/2000/svg" xmlns:xlink="http://www.w3.org/1999/xlink" width="50px" height="40px" viewBox="0 0 50 40" version="1.1">
<g id="surface1">
<path style="fill:none;stroke-width:1;stroke-linecap:round;stroke-linejoin:round;stroke:#148FBE;stroke-opacity:1;stroke-miterlimit:10;" d="M 32.839297 8.729102 C 33.162266 10.067187 32.955234 12.225391 32.222344 13.888867 L 31.742031 17.063086 L 30.259688 21.77793 C 30.102344 22.279297 29.663438 22.617969 29.170703 22.617969 L 29.0175 22.617969 C 28.234922 22.617969 27.684219 21.801172 27.924375 21.000977 L 28.885 16.704492 C 28.885 16.704492 26.442031 11.989648 27.112813 9.808203 " transform="matrix(0.943396,0,0,1.176471,0,0)"/>
<path style="fill:none;stroke-width:1;stroke-linecap:round;stroke-linejoin:round;stroke:#148FBE;stroke-opacity:1;stroke-miterlimit:10;" d="M 15.808906 7.869141 L 16.715703 12.889453 L 15.216797 22.192969 C 15.142266 22.800586 14.666094 23.255469 14.098828 23.26875 L 13.916641 23.27207 C 13.129922 23.288672 12.558516 22.475195 12.798672 21.668359 C 13.287266 20.028125 13.378359 17.378516 12.657891 15.572266 C 11.829766 13.507031 12.210703 12.520898 12.210703 12.520898 " transform="matrix(0.943396,0,0,1.176471,0,0)"/>
<path style="fill:none;stroke-width:1;stroke-linecap:round;stroke-linejoin:round;stroke:#148FBE;stroke-opacity:1;stroke-miterlimit:10;" d="M 18.587266 15.645312 C 18.587266 15.645312 25.738125 16.452148 27.680078 14.758789 " transform="matrix(0.943396,0,0,1.176471,0,0)"/>
<path style="fill:none;stroke-width:1;stroke-linecap:round;stroke-linejoin:round;stroke:#148FBE;stroke-opacity:1;stroke-miterlimit:10;" d="M 35.998594 15.572266 C 35.998594 15.572266 34.719141 13.314453 35.265703 9.88125 C 36.284297 3.529492 31.456328 2.842188 31.456328 2.842188 L 31.253438 2.75918 L 16.715703 2.380664 L 11.216953 3.001562 " transform="matrix(0.943396,0,0,1.176471,0,0)"/>
<path style="fill:none;stroke-width:1;stroke-linecap:round;stroke-linejoin:round;stroke:#148FBE;stroke-opacity:1;stroke-miterlimit:10;" d="M 32.189219 14.098047 L 34.0525 16.458789 L 34.015234 21.591992 C 34.015234 22.159766 33.58875 22.617969 33.05875 22.617969 L 32.065 22.617969 " transform="matrix(0.943396,0,0,1.176471,0,0)"/>
<path style="fill:none;stroke-width:1;stroke-linecap:round;stroke-linejoin:round;stroke:#148FBE;stroke-opacity:1;stroke-miterlimit:10;" d="M 2.057891 1.968945 C 3.233828 3.529492 4.409766 3.529492 4.409766 3.529492 " transform="matrix(0.943396,0,0,1.176471,0,0)"/>
<path style="fill:none;stroke-width:1;stroke-linecap:round;stroke-linejoin:round;stroke:#148FBE;stroke-opacity:1;stroke-miterlimit:10;" d="M 8.670469 0.999414 C 9.511016 2.749219 7.643594 3.645703 7.643594 3.645703 C 7.643594 3.645703 6.037031 1.321484 4.413906 3.529492 L 3.192422 5.066797 C 3.192422 5.066797 1.946094 7.201758 1.072422 8.426953 C 0.828125 8.768945 1.267031 9.917773 1.478203 10.283008 C 1.867422 10.963672 4.641641 11.382031 7.225391 10.41582 C 7.225391 10.41582 9.378516 10.615039 9.784297 14.758789 C 9.862969 15.545703 11.403281 16.614844 12.674453 16.438867 " transform="matrix(0.943396,0,0,1.176471,0,0)"/>
<path style="fill:none;stroke-width:1;stroke-linecap:round;stroke-linejoin:round;stroke:#148FBE;stroke-opacity:1;stroke-miterlimit:10;" d="M 8.48 7.65 C 11.291484 8.60625 11.432266 6.139258 11.432266 6.139258 L 11.432266 5.979883 C 10.065859 4.279883 8.798828 5.501758 8.798828 5.501758 " transform="matrix(0.943396,0,0,1.176471,0,0)"/>
<path style="fill:none;stroke-width:2;stroke-linecap:round;stroke-linejoin:round;stroke:#148FBE;stroke-opacity:1;stroke-miterlimit:4;" d="M 51.997969 25.324023 L 51.997969 29.424609 C 51.997969 31.114648 50.875859 32.499219 49.501172 32.499219 L 44.499297 32.499219 C 43.124609 32.499219 41.998359 31.114648 41.998359 29.424609 L 41.998359 24.278125 L 45.240469 24.301367 C 45.849141 24.301367 46.449531 24.474023 47.000234 24.812695 C 47.550938 25.151367 48.151328 25.324023 48.768281 25.324023 Z M 51.997969 25.324023 " transform="matrix(0.943396,0,0,1.176471,0,0)"/>
<path style="fill:none;stroke-width:2;stroke-linecap:round;stroke-linejoin:round;stroke:#148FBE;stroke-opacity:1;stroke-miterlimit:4;" d="M 51.997969 21.050781 L 51.997969 25.324023 L 48.768281 25.324023 C 48.151328 25.324023 47.550938 25.151367 47.000234 24.812695 C 46.449531 24.474023 45.849141 24.301367 45.240469 24.301367 L 41.998359 24.278125 L 41.998359 21.050781 C 41.998359 20.579297 42.217813 19.935156 42.491094 19.596484 L 44.259141 17.42168 C 44.408203 17.239062 44.499297 16.970117 44.499297 16.704492 L 44.499297 15.074219 L 49.501172 15.074219 L 49.501172 16.704492 C 49.501172 16.970117 49.592266 17.239062 49.741328 17.42168 L 51.509375 19.596484 C 51.782656 19.935156 51.997969 20.579297 51.997969 21.050781 Z M 51.997969 21.050781 " transform="matrix(0.943396,0,0,1.176471,0,0)"/>
<path style="fill:none;stroke-width:2;stroke-linecap:round;stroke-linejoin:round;stroke:#148FBE;stroke-opacity:1;stroke-miterlimit:4;" d="M 51.997969 26.35 L 51.997969 25.324023 " transform="matrix(0.943396,0,0,1.176471,0,0)"/>
<path style="fill:none;stroke-width:2;stroke-linecap:round;stroke-linejoin:round;stroke:#148FBE;stroke-opacity:1;stroke-miterlimit:4;" d="M 41.998359 25.304102 L 41.998359 24.278125 " transform="matrix(0.943396,0,0,1.176471,0,0)"/>
<path style="fill:none;stroke-width:2;stroke-linecap:round;stroke-linejoin:round;stroke:#148FBE;stroke-opacity:1;stroke-miterlimit:4;" d="M 49.082969 15.074219 L 44.9175 15.074219 C 44.226016 15.074219 43.667031 14.376953 43.667031 13.536914 C 43.667031 12.696875 44.226016 11.999609 44.9175 11.999609 L 49.082969 11.999609 C 49.774453 11.999609 50.333438 12.696875 50.333438 13.536914 C 50.333438 14.376953 49.774453 15.074219 49.082969 15.074219 Z M 49.082969 15.074219 " transform="matrix(0.943396,0,0,1.176471,0,0)"/>
</g>
</svg>
