<?xml version="1.0" encoding="UTF-8"?>
<svg xmlns="http://www.w3.org/2000/svg" xmlns:xlink="http://www.w3.org/1999/xlink" width="50px" height="40px" viewBox="0 0 50 40" version="1.1">
<g id="surface1">
<path style=" stroke:none;fill-rule:nonzero;fill:rgb(100%,100%,100%);fill-opacity:1;" d="M 49.878906 11.636719 C 49.421875 10.6875 47.742188 10.617188 42.277344 12.089844 C 42.273438 12.089844 42.269531 12.09375 42.261719 12.09375 C 41.691406 12.246094 41.066406 12.421875 40.414062 12.609375 C 39.566406 12.839844 38.757812 13.046875 37.972656 13.238281 C 37.96875 13.230469 37.960938 13.226562 37.953125 13.222656 L 37.5 12.089844 C 37.402344 12.109375 37.3125 12.125 37.214844 12.144531 C 36.96875 11.121094 36.007812 7.324219 35.070312 6.253906 C 33.285156 4.222656 35.28125 3.101562 33.898438 1.257812 C 33.03125 0.105469 32.214844 -0.484375 31 0.5 C 29.003906 2.113281 26.703125 2.796875 25 2.796875 C 23.296875 2.796875 20.996094 2.113281 19 0.5 C 17.785156 -0.484375 16.96875 0.101562 16.101562 1.257812 C 14.71875 3.101562 16.710938 4.222656 14.929688 6.253906 C 13.992188 7.324219 13.03125 11.117188 12.785156 12.144531 C 12.6875 12.125 12.59375 12.109375 12.5 12.089844 L 12.042969 13.222656 C 12.035156 13.226562 12.03125 13.230469 12.027344 13.238281 C 11.25 13.046875 10.445312 12.84375 9.605469 12.617188 C 8.9375 12.425781 8.300781 12.246094 7.71875 12.089844 C 2.257812 10.621094 0.578125 10.6875 0.121094 11.636719 C -0.726562 13.398438 3.046875 19.558594 6.53125 20.347656 C 6.078125 21.636719 5.832031 22.992188 5.832031 24.398438 C 5.832031 32.773438 14.410156 39.5625 25 39.5625 C 35.589844 39.5625 44.167969 32.773438 44.167969 24.398438 C 44.167969 22.992188 43.921875 21.636719 43.46875 20.34375 C 46.953125 19.5625 50.726562 13.398438 49.878906 11.636719 Z M 25 38.242188 C 15.351562 38.242188 7.496094 32.03125 7.496094 24.398438 C 7.496094 20.777344 9.277344 17.488281 12.160156 15.019531 C 12.90625 15.574219 13.628906 16.15625 14.203125 16.710938 C 18.433594 20.804688 31.566406 20.804688 35.796875 16.710938 C 36.371094 16.15625 37.089844 15.574219 37.835938 15.019531 C 40.71875 17.488281 42.5 20.777344 42.5 24.398438 C 42.5 32.03125 34.648438 38.242188 25 38.242188 Z M 25 38.242188 "/>
<path style=" stroke:none;fill-rule:nonzero;fill:rgb(100%,100%,100%);fill-opacity:1;" d="M 31.367188 30.289062 C 27.261719 32.664062 22.710938 32.648438 18.632812 30.289062 C 18.140625 30.003906 17.699219 30.496094 18.03125 30.953125 C 19.273438 32.648438 21.785156 34.160156 25 34.160156 C 28.214844 34.160156 30.726562 32.648438 31.964844 30.953125 C 32.300781 30.496094 31.855469 30.003906 31.367188 30.289062 Z M 31.367188 30.289062 "/>
<path style=" stroke:none;fill-rule:nonzero;fill:rgb(100%,100%,100%);fill-opacity:1;" d="M 20.84375 22.980469 C 20.84375 21.585938 19.414062 20.457031 17.652344 20.457031 C 15.886719 20.457031 14.457031 21.585938 14.457031 22.980469 C 14.457031 24.378906 15.886719 25.511719 17.652344 25.511719 C 19.414062 25.511719 20.84375 24.378906 20.84375 22.980469 Z M 20.84375 22.980469 "/>
<path style=" stroke:none;fill-rule:nonzero;fill:rgb(100%,100%,100%);fill-opacity:1;" d="M 32.347656 25.507812 C 34.109375 25.507812 35.539062 24.378906 35.539062 22.980469 C 35.539062 21.585938 34.109375 20.453125 32.347656 20.453125 C 30.582031 20.453125 29.152344 21.585938 29.152344 22.980469 C 29.152344 24.378906 30.582031 25.507812 32.347656 25.507812 Z M 32.347656 25.507812 "/>
</g>
</svg>
