<svg width="27" height="19" viewBox="0 0 27 19" fill="none" xmlns="http://www.w3.org/2000/svg">
<path fill-rule="evenodd" clip-rule="evenodd" d="M4.3304 3.2816C3.199 4.13162 2.24609 5.55748 2.24609 8C2.24609 10.4425 3.199 11.8684 4.3304 12.7184C5.51278 13.6067 6.96167 13.913 7.91276 13.913H19.9128C20.465 13.913 20.9128 14.3802 20.9128 14.9565C20.9128 15.5328 20.465 16 19.9128 16H7.91276C6.64162 16 4.75718 15.6107 3.16179 14.412C1.5154 13.1751 0.246094 11.1227 0.246094 8C0.246094 4.8773 1.5154 2.8249 3.16179 1.58796C4.75718 0.389336 6.64162 0 7.91276 0H18.5794C19.8506 0 21.735 0.389336 23.3304 1.58797C24.9768 2.8249 26.2461 4.87731 26.2461 8C26.2461 10.3139 25.5488 12.0607 24.4835 13.324C24.1187 13.7567 23.4868 13.7988 23.0722 13.4181C22.6575 13.0374 22.6172 12.378 22.982 11.9454C23.7029 11.0906 24.2461 9.84416 24.2461 8C24.2461 5.55748 23.2932 4.13162 22.1618 3.2816C20.9794 2.39327 19.5305 2.08696 18.5794 2.08696H7.91276C6.96167 2.08696 5.51278 2.39327 4.3304 3.2816Z" fill="black"/>
<path fill-rule="evenodd" clip-rule="evenodd" d="M15.5756 10.3042C16.0149 9.89861 16.7272 9.89861 17.1666 10.3042L20.9166 13.7657C21.3559 14.1712 21.3559 14.8288 20.9166 15.2343L17.1666 18.6958C16.7272 19.1014 16.0149 19.1014 15.5756 18.6958C15.1363 18.2903 15.1363 17.6328 15.5756 17.2272L18.5301 14.5L15.5756 11.7728C15.1363 11.3672 15.1363 10.7097 15.5756 10.3042Z" fill="black"/>
</svg>
