<svg width="27" height="21" viewBox="0 0 27 21" fill="none" xmlns="http://www.w3.org/2000/svg">
<path fill-rule="evenodd" clip-rule="evenodd" d="M2.06005 1.8V8.4H24.4321V5.4H14.1192C13.7295 5.4 13.3527 5.26174 13.0567 5.00999C13.0567 5.00995 13.0568 5.01004 13.0567 5.00999L9.28267 1.8H2.06005ZM24.4321 10.2H2.06005V19.2H24.4321V10.2ZM0.246094 1.62C0.246094 0.7253 0.977016 0 1.87865 0H9.34978C9.73952 0 10.1164 0.138362 10.4122 0.389996L14.1863 3.6H24.6135C25.5152 3.6 26.2461 4.32533 26.2461 5.22V19.38C26.2461 20.2747 25.5152 21 24.6135 21H1.87865C0.977044 21 0.246094 20.2748 0.246094 19.38V1.62Z" fill="black"/>
</svg>
