<svg width="28" height="16" viewBox="0 0 28 16" fill="none" xmlns="http://www.w3.org/2000/svg">
<path d="M1 9C6.2 -1.66667 21.8 -1.66667 27 9" stroke="#148FBE" stroke-width="2" stroke-linecap="round" stroke-linejoin="round"/>
<path d="M14 15C13.4747 15 12.9546 14.8965 12.4693 14.6955C11.984 14.4945 11.543 14.1999 11.1716 13.8284C10.8001 13.457 10.5055 13.016 10.3045 12.5307C10.1035 12.0454 10 11.5253 10 11C10 10.4747 10.1035 9.95457 10.3045 9.46927C10.5055 8.98396 10.8001 8.54301 11.1716 8.17157C11.543 7.80014 11.984 7.5055 12.4693 7.30448C12.9546 7.10346 13.4747 7 14 7C15.0609 7 16.0783 7.42143 16.8284 8.17157C17.5786 8.92172 18 9.93913 18 11C18 12.0609 17.5786 13.0783 16.8284 13.8284C16.0783 14.5786 15.0609 15 14 15Z" stroke="#148FBE" stroke-width="2" stroke-linecap="round" stroke-linejoin="round"/>
</svg>
